<svg xmlns="http://www.w3.org/2000/svg" version="1.1" width="638.849pt" height="163.856pt" viewBox="0 0 638.849 163.856"><g id="Layer-1" data-name="Demand Pull"><clipPath id="cp0"><path transform="matrix(1,0,0,-1,0,163.856)" d="M 0 163.856 L 638.849 163.856 L 638.849 0 L 0 0 Z "/></clipPath><g clip-path="url(#cp0)"><path transform="matrix(1,0,0,-1,369.8739,159.06041)" d="M 0 0 L -98.637 0 C -101.741 0 -104.258 2.517 -104.258 5.621 L -104.258 149.235 C -104.258 152.339 -101.741 154.856 -98.637 154.856 L 0 154.856 C 3.105 154.856 5.621 152.339 5.621 149.235 L 5.621 5.621 C 5.621 2.517 3.105 0 0 0 " fill="#00b1b1"/><path transform="matrix(1,0,0,-1,110.4172,159.0685)" d="M 0 0 L -98.637 0 C -101.741 0 -104.258 2.517 -104.258 5.621 L -104.258 149.235 C -104.258 152.339 -101.741 154.856 -98.637 154.856 L 0 154.856 C 3.105 154.856 5.621 152.339 5.621 149.235 L 5.621 5.621 C 5.621 2.517 3.105 0 0 0 " fill="#4aa544"/><path transform="matrix(1,0,0,-1,42.6274,84.82011)" d="M 0 0 C -.048 1.044 -.108 2.303 -.096 3.394 L -.132 3.394 C -.396 2.411 -.731 1.319 -1.092 .3 L -2.267 -3.202 L -3.406 -3.202 L -4.485 .251 C -4.797 1.283 -5.085 2.387 -5.301 3.394 L -5.325 3.394 C -5.361 2.339 -5.409 1.056 -5.469 -.048 L -5.648 -3.298 L -7.028 -3.298 L -6.488 4.785 L -4.546 4.785 L -3.49 1.535 C -3.202 .587 -2.95 -.372 -2.746 -1.271 L -2.711 -1.271 C -2.494 -.396 -2.219 .6 -1.907 1.547 L -.792 4.785 L 1.127 4.785 L 1.595 -3.298 L .156 -3.298 Z " fill="#ffffff"/><path transform="matrix(1,0,0,-1,51.2681,84.7117)" d="M 0 0 L -.636 1.99 C -.791 2.482 -.923 3.033 -1.043 3.502 L -1.067 3.502 C -1.187 3.033 -1.307 2.471 -1.451 1.99 L -2.074 0 Z M -2.314 -1.116 L -3.01 -3.406 L -4.533 -3.406 L -1.942 4.677 L -.06 4.677 L 2.566 -3.406 L .983 -3.406 L .252 -1.116 Z " fill="#ffffff"/><path transform="matrix(1,0,0,-1,58.1098,83.717609)" d="M 0 0 L .876 0 C 1.871 0 2.495 .528 2.495 1.332 C 2.495 2.219 1.871 2.627 .912 2.627 C .444 2.627 .145 2.592 0 2.555 Z M -1.463 3.574 C -.911 3.671 -.084 3.742 .768 3.742 C 1.932 3.742 2.723 3.551 3.263 3.096 C 3.706 2.723 3.958 2.16 3.958 1.477 C 3.958 .433 3.25 -.275 2.495 -.551 L 2.495 -.587 C 3.07 -.803 3.418 -1.367 3.622 -2.146 C 3.874 -3.154 4.09 -4.089 4.258 -4.4 L 2.734 -4.4 C 2.615 -4.161 2.423 -3.502 2.195 -2.494 C 1.967 -1.438 1.583 -1.103 .744 -1.078 L 0 -1.078 L 0 -4.4 L -1.463 -4.4 Z " fill="#ffffff"/><path transform="matrix(1,0,0,-1,65.1548,80.034908)" d="M 0 0 L 1.463 0 L 1.463 -3.718 L 1.499 -3.718 C 1.691 -3.406 1.895 -3.118 2.087 -2.843 L 4.197 0 L 6.021 0 L 3.238 -3.442 L 6.2 -8.083 L 4.474 -8.083 L 2.183 -4.378 L 1.463 -5.241 L 1.463 -8.083 L 0 -8.083 Z " fill="#ffffff"/><path transform="matrix(1,0,0,-1,78.3393,84.532009)" d="M 0 0 L -3.046 0 L -3.046 -2.375 L .359 -2.375 L .359 -3.586 L -4.521 -3.586 L -4.521 4.497 L .18 4.497 L .18 3.285 L -3.046 3.285 L -3.046 1.199 L 0 1.199 Z " fill="#ffffff"/><path transform="matrix(1,0,0,-1,83.3452,81.2703)" d="M 0 0 L -2.303 0 L -2.303 1.235 L 3.802 1.235 L 3.802 0 L 1.476 0 L 1.476 -6.848 L 0 -6.848 Z " fill="#ffffff"/><path transform="matrix(1,0,0,-1,21.0307,98.909008)" d="M 0 0 C .181 -.048 .42 -.06 .72 -.06 C 1.823 -.06 2.495 .48 2.495 1.428 C 2.495 2.327 1.871 2.807 .852 2.807 C .444 2.807 .156 2.771 0 2.734 Z M -1.463 3.766 C -.936 3.862 -.204 3.934 .792 3.934 C 1.871 3.934 2.663 3.706 3.179 3.274 C 3.658 2.879 3.97 2.243 3.97 1.487 C 3.97 .72 3.73 .084 3.274 -.348 C 2.687 -.936 1.764 -1.211 .72 -1.211 C .444 -1.211 .192 -1.199 0 -1.163 L 0 -4.209 L -1.463 -4.209 Z " fill="#ffffff"/><path transform="matrix(1,0,0,-1,31.0376,99.7117)" d="M 0 0 L -.636 1.99 C -.791 2.482 -.923 3.033 -1.043 3.502 L -1.067 3.502 C -1.187 3.033 -1.307 2.471 -1.451 1.99 L -2.074 0 Z M -2.314 -1.116 L -3.01 -3.406 L -4.533 -3.406 L -1.942 4.677 L -.06 4.677 L 2.566 -3.406 L .983 -3.406 L .252 -1.116 Z " fill="#ffffff"/><path transform="matrix(1,0,0,-1,37.8794,98.717609)" d="M 0 0 L .876 0 C 1.871 0 2.495 .528 2.495 1.332 C 2.495 2.219 1.871 2.627 .912 2.627 C .444 2.627 .145 2.592 0 2.555 Z M -1.463 3.574 C -.911 3.671 -.084 3.742 .768 3.742 C 1.932 3.742 2.723 3.551 3.263 3.096 C 3.706 2.723 3.958 2.16 3.958 1.477 C 3.958 .433 3.25 -.275 2.495 -.551 L 2.495 -.587 C 3.07 -.803 3.418 -1.367 3.622 -2.146 C 3.874 -3.154 4.09 -4.089 4.258 -4.4 L 2.734 -4.4 C 2.615 -4.161 2.423 -3.502 2.195 -2.494 C 1.967 -1.438 1.583 -1.103 .744 -1.078 L 0 -1.078 L 0 -4.4 L -1.463 -4.4 Z " fill="#ffffff"/><path transform="matrix(1,0,0,-1,46.5307,96.2703)" d="M 0 0 L -2.303 0 L -2.303 1.235 L 3.802 1.235 L 3.802 0 L 1.476 0 L 1.476 -6.848 L 0 -6.848 Z " fill="#ffffff"/><path transform="matrix(1,0,0,-1,0,163.856)" d="M 54.439 60.738 L 52.962999 60.738 L 52.962999 68.821 L 54.439 68.821 Z " fill="#ffffff"/><path transform="matrix(1,0,0,-1,63.605,102.87871)" d="M 0 0 C -.348 -.18 -1.115 -.36 -2.087 -.36 C -4.653 -.36 -6.213 1.247 -6.213 3.706 C -6.213 6.368 -4.366 7.976 -1.896 7.976 C -.924 7.976 -.229 7.772 .071 7.616 L -.252 6.44 C -.636 6.608 -1.163 6.753 -1.835 6.753 C -3.479 6.753 -4.666 5.722 -4.666 3.778 C -4.666 2.003 -3.622 .864 -1.847 .864 C -1.247 .864 -.624 .983 -.24 1.163 Z " fill="#ffffff"/><path transform="matrix(1,0,0,-1,0,163.856)" d="M 68.023 60.738 L 66.547008 60.738 L 66.547008 68.821 L 68.023 68.821 Z " fill="#ffffff"/><path transform="matrix(1,0,0,-1,72.8579,98.909008)" d="M 0 0 C .18 -.048 .42 -.06 .72 -.06 C 1.823 -.06 2.495 .48 2.495 1.428 C 2.495 2.327 1.871 2.807 .852 2.807 C .444 2.807 .156 2.771 0 2.734 Z M -1.463 3.766 C -.936 3.862 -.203 3.934 .792 3.934 C 1.871 3.934 2.663 3.706 3.179 3.274 C 3.658 2.879 3.97 2.243 3.97 1.487 C 3.97 .72 3.73 .084 3.274 -.348 C 2.687 -.936 1.764 -1.211 .72 -1.211 C .444 -1.211 .192 -1.199 0 -1.163 L 0 -4.209 L -1.463 -4.209 Z " fill="#ffffff"/><path transform="matrix(1,0,0,-1,82.8647,99.7117)" d="M 0 0 L -.636 1.99 C -.791 2.482 -.923 3.033 -1.043 3.502 L -1.067 3.502 C -1.187 3.033 -1.307 2.471 -1.451 1.99 L -2.074 0 Z M -2.314 -1.116 L -3.01 -3.406 L -4.533 -3.406 L -1.942 4.677 L -.06 4.677 L 2.566 -3.406 L .983 -3.406 L .252 -1.116 Z " fill="#ffffff"/><path transform="matrix(1,0,0,-1,88.2427,103.118007)" d="M 0 0 L 0 8.083 L 1.679 8.083 L 3.766 4.617 C 4.306 3.717 4.773 2.781 5.146 1.906 L 5.169 1.906 C 5.073 2.986 5.037 4.029 5.037 5.265 L 5.037 8.083 L 6.404 8.083 L 6.404 0 L 4.881 0 L 2.771 3.549 C 2.255 4.438 1.715 5.433 1.319 6.344 L 1.283 6.332 C 1.343 5.289 1.355 4.221 1.355 2.891 L 1.355 0 Z " fill="#ffffff"/><path transform="matrix(1,0,0,-1,99.5815,96.2703)" d="M 0 0 L -2.303 0 L -2.303 1.235 L 3.802 1.235 L 3.802 0 L 1.476 0 L 1.476 -6.848 L 0 -6.848 Z " fill="#ffffff"/><path transform="matrix(1,0,0,-1,627.3013,158.3625)" d="M 0 0 L -98.637 0 C -101.741 0 -104.258 2.517 -104.258 5.621 L -104.258 149.235 C -104.258 152.339 -101.741 154.856 -98.637 154.856 L 0 154.856 C 3.104 154.856 5.621 152.339 5.621 149.235 L 5.621 5.621 C 5.621 2.517 3.104 0 0 0 " fill="#0066aa"/><path transform="matrix(1,0,0,-1,158.7124,114.1209)" d="M 0 0 C .22 -.039 .542 -.053 .942 -.053 C 2.104 -.053 3.176 .377 3.176 1.65 C 3.176 2.847 2.155 3.341 .93 3.341 L 0 3.341 Z M 0 4.199 L 1.02 4.199 C 2.207 4.199 2.904 4.823 2.904 5.668 C 2.904 6.695 2.13 7.098 .994 7.098 C .478 7.098 .181 7.059 0 7.02 Z M -1.123 7.787 C -.633 7.891 .142 7.969 .93 7.969 C 2.053 7.969 2.775 7.774 3.317 7.332 C 3.77 6.994 4.04 6.474 4.04 5.785 C 4.04 4.939 3.485 4.199 2.568 3.86 L 2.568 3.835 C 3.395 3.627 4.363 2.938 4.363 1.638 C 4.363 .884 4.066 .312 3.627 -.117 C 3.021 -.677 2.039 -.937 .619 -.937 C -.155 -.937 -.749 -.885 -1.123 -.832 Z " fill="#231f20"/><path transform="matrix(1,0,0,-1,165.1655,111.846508)" d="M 0 0 C 0 -1.378 .787 -2.418 1.897 -2.418 C 2.982 -2.418 3.795 -1.391 3.795 .026 C 3.795 1.093 3.266 2.444 1.924 2.444 C .581 2.444 0 1.196 0 0 M 4.957 .065 C 4.957 -2.262 3.356 -3.275 1.846 -3.275 C .155 -3.275 -1.148 -2.027 -1.148 -.039 C -1.148 2.067 .22 3.303 1.949 3.303 C 3.743 3.303 4.957 1.989 4.957 .065 " fill="#231f20"/><path transform="matrix(1,0,0,-1,171.4243,110.3904)" d="M 0 0 C 0 .65 -.013 1.184 -.052 1.703 L .955 1.703 L 1.02 .663 L 1.046 .663 C 1.355 1.262 2.078 1.847 3.111 1.847 C 3.977 1.847 5.318 1.326 5.318 -.832 L 5.318 -4.589 L 4.183 -4.589 L 4.183 -.962 C 4.183 .053 3.809 .897 2.737 .897 C 1.988 .897 1.407 .364 1.214 -.272 C 1.162 -.416 1.136 -.61 1.136 -.806 L 1.136 -4.589 L 0 -4.589 Z " fill="#231f20"/><path transform="matrix(1,0,0,-1,182.7182,111.2478)" d="M 0 0 C 0 .143 -.013 .338 -.052 .48 C -.22 1.209 -.839 1.807 -1.691 1.807 C -2.866 1.807 -3.563 .767 -3.563 -.624 C -3.563 -1.898 -2.943 -2.951 -1.717 -2.951 C -.955 -2.951 -.258 -2.444 -.052 -1.586 C -.013 -1.431 0 -1.274 0 -1.093 Z M 1.136 5.499 L 1.136 -2.106 C 1.136 -2.665 1.148 -3.303 1.187 -3.731 L .168 -3.731 L .116 -2.64 L .09 -2.64 C -.258 -3.342 -1.02 -3.874 -2.04 -3.874 C -3.55 -3.874 -4.712 -2.587 -4.712 -.677 C -4.725 1.417 -3.434 2.704 -1.91 2.704 C -.955 2.704 -.31 2.249 -.026 1.742 L 0 1.742 L 0 5.499 Z " fill="#231f20"/><path transform="matrix(1,0,0,-1,185.4536,113.8094)" d="M 0 0 C .335 -.221 .929 -.455 1.497 -.455 C 2.323 -.455 2.711 -.039 2.711 .481 C 2.711 1.027 2.388 1.326 1.549 1.639 C .426 2.041 -.104 2.665 -.104 3.419 C -.104 4.434 .71 5.266 2.052 5.266 C 2.685 5.266 3.239 5.083 3.588 4.875 L 3.305 4.043 C 3.059 4.199 2.607 4.407 2.026 4.407 C 1.355 4.407 .98 4.018 .98 3.549 C .98 3.029 1.355 2.795 2.168 2.483 C 3.253 2.067 3.808 1.521 3.808 .585 C 3.808 -.52 2.956 -1.3 1.472 -1.3 C .787 -1.3 .154 -1.131 -.284 -.871 Z " fill="#231f20"/><path transform="matrix(1,0,0,-1,195.6616,105.9568)" d="M 0 0 C -.941 -1.274 -1.626 -2.964 -1.626 -5.317 C -1.626 -7.632 -.916 -9.296 0 -10.596 L -.891 -10.596 C -1.703 -9.517 -2.581 -7.853 -2.581 -5.317 C -2.568 -2.756 -1.703 -1.092 -.891 0 Z " fill="#231f20"/><path transform="matrix(1,0,0,-1,196.5776,113.8094)" d="M 0 0 C .336 -.221 .93 -.455 1.497 -.455 C 2.323 -.455 2.711 -.039 2.711 .481 C 2.711 1.027 2.389 1.326 1.549 1.639 C .426 2.041 -.104 2.665 -.104 3.419 C -.104 4.434 .71 5.266 2.053 5.266 C 2.686 5.266 3.24 5.083 3.589 4.875 L 3.305 4.043 C 3.06 4.199 2.607 4.407 2.026 4.407 C 1.355 4.407 .981 4.018 .981 3.549 C .981 3.029 1.355 2.795 2.169 2.483 C 3.253 2.067 3.809 1.521 3.809 .585 C 3.809 -.52 2.956 -1.3 1.472 -1.3 C .787 -1.3 .155 -1.131 -.284 -.871 Z " fill="#231f20"/><path transform="matrix(1,0,0,-1,205.0063,111.7684)" d="M 0 0 C -1.239 .026 -2.646 -.195 -2.646 -1.417 C -2.646 -2.158 -2.156 -2.509 -1.575 -2.509 C -.762 -2.509 -.245 -1.989 -.064 -1.456 C -.025 -1.339 0 -1.209 0 -1.092 Z M .168 -3.211 L .077 -2.418 L .039 -2.418 C -.31 -2.912 -.981 -3.354 -1.872 -3.354 C -3.137 -3.354 -3.782 -2.457 -3.782 -1.547 C -3.782 -.025 -2.439 .807 -.025 .793 L -.025 .923 C -.025 1.443 -.168 2.379 -1.446 2.379 C -2.026 2.379 -2.634 2.197 -3.072 1.911 L -3.33 2.665 C -2.814 3.003 -2.065 3.225 -1.278 3.225 C .633 3.225 1.098 1.911 1.098 .65 L 1.098 -1.703 C 1.098 -2.249 1.123 -2.782 1.2 -3.211 Z " fill="#231f20"/><path transform="matrix(1,0,0,-1,0,163.856)" d="M 207.806 58.107 L 208.942 58.107 L 208.942 48.877 L 207.806 48.877 Z " fill="#231f20"/><path transform="matrix(1,0,0,-1,214.686,111.2225)" d="M 0 0 C .013 .729 -.297 1.859 -1.575 1.859 C -2.724 1.859 -3.228 .793 -3.317 0 Z M -3.331 -.818 C -3.305 -2.366 -2.324 -3.003 -1.187 -3.003 C -.374 -3.003 .116 -2.859 .542 -2.678 L .735 -3.497 C .336 -3.679 -.349 -3.887 -1.343 -3.887 C -3.266 -3.887 -4.415 -2.612 -4.415 -.715 C -4.415 1.184 -3.305 2.679 -1.484 2.679 C .555 2.679 1.097 .871 1.097 -.286 C 1.097 -.52 1.071 -.702 1.059 -.818 Z " fill="#231f20"/><path transform="matrix(1,0,0,-1,216.3755,116.552509)" d="M 0 0 C .917 1.287 1.627 2.978 1.627 5.317 C 1.627 7.645 .93 9.309 0 10.596 L .878 10.596 C 1.704 9.529 2.569 7.865 2.569 5.305 C 2.569 2.756 1.704 1.105 .878 0 Z " fill="#231f20"/><path transform="matrix(1,0,0,-1,157.2749,143.9812)" d="M 0 0 L 4.686 0 L 4.686 -.949 L 1.123 -.949 L 1.123 -3.861 L 4.415 -3.861 L 4.415 -4.798 L 1.123 -4.798 L 1.123 -8.763 L 0 -8.763 Z " fill="#231f20"/><path transform="matrix(1,0,0,-1,168.1684,151.0281)" d="M 0 0 C 0 -.649 .014 -1.222 .052 -1.716 L -.955 -1.716 L -1.02 -.688 L -1.045 -.688 C -1.342 -1.195 -2.001 -1.858 -3.11 -1.858 C -4.092 -1.858 -5.267 -1.312 -5.267 .897 L -5.267 4.576 L -4.131 4.576 L -4.131 1.092 C -4.131 -.104 -3.77 -.91 -2.736 -.91 C -1.975 -.91 -1.445 -.377 -1.239 .13 C -1.175 .299 -1.136 .507 -1.136 .715 L -1.136 4.576 L 0 4.576 Z " fill="#231f20"/><path transform="matrix(1,0,0,-1,171.2905,144.6443)" d="M 0 0 L 0 -1.808 L 1.626 -1.808 L 1.626 -2.679 L 0 -2.679 L 0 -6.071 C 0 -6.852 .22 -7.294 .852 -7.294 C 1.148 -7.294 1.368 -7.255 1.511 -7.216 L 1.562 -8.073 C 1.343 -8.165 .994 -8.229 .555 -8.229 C .025 -8.229 -.4 -8.061 -.671 -7.749 C -.994 -7.41 -1.11 -6.852 -1.11 -6.11 L -1.11 -2.679 L -2.078 -2.679 L -2.078 -1.808 L -1.11 -1.808 L -1.11 -.3 Z " fill="#231f20"/><path transform="matrix(1,0,0,-1,179.2934,151.0281)" d="M 0 0 C 0 -.649 .013 -1.222 .052 -1.716 L -.955 -1.716 L -1.02 -.688 L -1.046 -.688 C -1.343 -1.195 -2.001 -1.858 -3.111 -1.858 C -4.093 -1.858 -5.267 -1.312 -5.267 .897 L -5.267 4.576 L -4.131 4.576 L -4.131 1.092 C -4.131 -.104 -3.77 -.91 -2.737 -.91 C -1.976 -.91 -1.446 -.377 -1.239 .13 C -1.175 .299 -1.136 .507 -1.136 .715 L -1.136 4.576 L 0 4.576 Z " fill="#231f20"/><path transform="matrix(1,0,0,-1,181.0473,148.4148)" d="M 0 0 C 0 .741 -.013 1.378 -.052 1.963 L .942 1.963 L .98 .729 L 1.032 .729 C 1.316 1.573 2.001 2.106 2.763 2.106 C 2.892 2.106 2.981 2.093 3.085 2.067 L 3.085 .988 C 2.969 1.014 2.853 1.027 2.697 1.027 C 1.897 1.027 1.329 .416 1.175 -.442 C 1.148 -.598 1.123 -.78 1.123 -.975 L 1.123 -4.329 L 0 -4.329 Z " fill="#231f20"/><path transform="matrix(1,0,0,-1,188.9721,148.9871)" d="M 0 0 C .013 .729 -.297 1.859 -1.575 1.859 C -2.724 1.859 -3.228 .793 -3.317 0 Z M -3.331 -.818 C -3.305 -2.366 -2.323 -3.003 -1.187 -3.003 C -.374 -3.003 .116 -2.859 .542 -2.678 L .735 -3.497 C .336 -3.679 -.349 -3.887 -1.343 -3.887 C -3.266 -3.887 -4.415 -2.613 -4.415 -.715 C -4.415 1.184 -3.305 2.679 -1.484 2.679 C .555 2.679 1.097 .871 1.097 -.286 C 1.097 -.52 1.071 -.702 1.059 -.818 Z " fill="#231f20"/><path transform="matrix(1,0,0,-1,191.1909,151.574)" d="M 0 0 C .336 -.221 .93 -.455 1.497 -.455 C 2.323 -.455 2.711 -.039 2.711 .481 C 2.711 1.027 2.389 1.326 1.549 1.638 C .426 2.041 -.104 2.665 -.104 3.419 C -.104 4.434 .71 5.266 2.053 5.266 C 2.686 5.266 3.24 5.083 3.589 4.875 L 3.305 4.043 C 3.06 4.199 2.607 4.407 2.026 4.407 C 1.355 4.407 .981 4.018 .981 3.549 C .981 3.029 1.355 2.795 2.169 2.483 C 3.253 2.067 3.809 1.521 3.809 .585 C 3.809 -.52 2.956 -1.3 1.472 -1.3 C .787 -1.3 .155 -1.131 -.284 -.871 Z " fill="#231f20"/><path transform="matrix(1,0,0,-1,201.4008,143.7215)" d="M 0 0 C -.942 -1.274 -1.627 -2.964 -1.627 -5.317 C -1.627 -7.632 -.917 -9.296 0 -10.596 L -.892 -10.596 C -1.704 -9.517 -2.582 -7.853 -2.582 -5.317 C -2.569 -2.756 -1.704 -1.092 -.892 0 Z " fill="#231f20"/><path transform="matrix(1,0,0,-1,202.3159,151.574)" d="M 0 0 C .335 -.221 .929 -.455 1.497 -.455 C 2.323 -.455 2.711 -.039 2.711 .481 C 2.711 1.027 2.388 1.326 1.549 1.638 C .426 2.041 -.104 2.665 -.104 3.419 C -.104 4.434 .71 5.266 2.052 5.266 C 2.685 5.266 3.24 5.083 3.588 4.875 L 3.305 4.043 C 3.059 4.199 2.607 4.407 2.026 4.407 C 1.355 4.407 .98 4.018 .98 3.549 C .98 3.029 1.355 2.795 2.168 2.483 C 3.253 2.067 3.808 1.521 3.808 .585 C 3.808 -.52 2.956 -1.3 1.472 -1.3 C .787 -1.3 .154 -1.131 -.284 -.871 Z " fill="#231f20"/><path transform="matrix(1,0,0,-1,210.7446,149.533)" d="M 0 0 C -1.239 .026 -2.646 -.194 -2.646 -1.417 C -2.646 -2.158 -2.156 -2.509 -1.575 -2.509 C -.762 -2.509 -.246 -1.989 -.065 -1.456 C -.026 -1.339 0 -1.209 0 -1.092 Z M .167 -3.211 L .077 -2.418 L .038 -2.418 C -.311 -2.912 -.981 -3.354 -1.872 -3.354 C -3.138 -3.354 -3.783 -2.457 -3.783 -1.547 C -3.783 -.025 -2.44 .807 -.026 .793 L -.026 .923 C -.026 1.443 -.168 2.379 -1.446 2.379 C -2.027 2.379 -2.634 2.197 -3.073 1.911 L -3.331 2.665 C -2.814 3.003 -2.065 3.225 -1.278 3.225 C .632 3.225 1.097 1.911 1.097 .65 L 1.097 -1.703 C 1.097 -2.249 1.123 -2.782 1.2 -3.211 Z " fill="#231f20"/><path transform="matrix(1,0,0,-1,0,163.856)" d="M 213.544 20.343 L 214.68001 20.343 L 214.68001 11.113001 L 213.544 11.113001 Z " fill="#231f20"/><path transform="matrix(1,0,0,-1,220.4233,148.9871)" d="M 0 0 C .014 .729 -.297 1.859 -1.574 1.859 C -2.724 1.859 -3.227 .793 -3.317 0 Z M -3.33 -.818 C -3.305 -2.366 -2.323 -3.003 -1.187 -3.003 C -.374 -3.003 .116 -2.859 .543 -2.678 L .736 -3.497 C .336 -3.679 -.349 -3.887 -1.342 -3.887 C -3.266 -3.887 -4.414 -2.613 -4.414 -.715 C -4.414 1.184 -3.305 2.679 -1.484 2.679 C .556 2.679 1.098 .871 1.098 -.286 C 1.098 -.52 1.072 -.702 1.059 -.818 Z " fill="#231f20"/><path transform="matrix(1,0,0,-1,222.1137,154.3172)" d="M 0 0 C .916 1.287 1.626 2.978 1.626 5.317 C 1.626 7.645 .929 9.309 0 10.596 L .878 10.596 C 1.704 9.529 2.568 7.865 2.568 5.305 C 2.568 2.756 1.704 1.105 .878 0 Z " fill="#231f20"/><path transform="matrix(1,0,0,-1,409.9038,14.7547)" d="M 0 0 C .219 -.039 .542 -.053 .942 -.053 C 2.104 -.053 3.175 .377 3.175 1.65 C 3.175 2.847 2.155 3.341 .929 3.341 L 0 3.341 Z M 0 4.199 L 1.02 4.199 C 2.207 4.199 2.904 4.823 2.904 5.668 C 2.904 6.695 2.13 7.098 .993 7.098 C .478 7.098 .181 7.059 0 7.02 Z M -1.123 7.787 C -.633 7.891 .142 7.969 .929 7.969 C 2.052 7.969 2.775 7.773 3.317 7.332 C 3.77 6.994 4.04 6.474 4.04 5.785 C 4.04 4.939 3.485 4.199 2.568 3.86 L 2.568 3.835 C 3.395 3.627 4.363 2.938 4.363 1.638 C 4.363 .884 4.066 .312 3.627 -.117 C 3.021 -.677 2.039 -.937 .619 -.937 C -.155 -.937 -.749 -.885 -1.123 -.832 Z " fill="#231f20"/><path transform="matrix(1,0,0,-1,416.3569,12.480301)" d="M 0 0 C 0 -1.378 .787 -2.418 1.897 -2.418 C 2.981 -2.418 3.795 -1.391 3.795 .026 C 3.795 1.093 3.266 2.444 1.923 2.444 C .581 2.444 0 1.196 0 0 M 4.957 .065 C 4.957 -2.262 3.356 -3.275 1.846 -3.275 C .154 -3.275 -1.149 -2.027 -1.149 -.039 C -1.149 2.067 .22 3.303 1.949 3.303 C 3.743 3.303 4.957 1.989 4.957 .065 " fill="#231f20"/><path transform="matrix(1,0,0,-1,422.6157,11.0242)" d="M 0 0 C 0 .65 -.013 1.184 -.052 1.703 L .955 1.703 L 1.02 .663 L 1.046 .663 C 1.355 1.262 2.078 1.847 3.111 1.847 C 3.976 1.847 5.318 1.326 5.318 -.832 L 5.318 -4.589 L 4.183 -4.589 L 4.183 -.962 C 4.183 .053 3.809 .897 2.736 .897 C 1.988 .897 1.407 .364 1.214 -.272 C 1.162 -.416 1.136 -.61 1.136 -.806 L 1.136 -4.589 L 0 -4.589 Z " fill="#231f20"/><path transform="matrix(1,0,0,-1,433.9096,11.881607)" d="M 0 0 C 0 .143 -.013 .338 -.052 .48 C -.22 1.209 -.839 1.807 -1.69 1.807 C -2.865 1.807 -3.563 .767 -3.563 -.624 C -3.563 -1.898 -2.943 -2.951 -1.717 -2.951 C -.955 -2.951 -.258 -2.444 -.052 -1.586 C -.013 -1.431 0 -1.274 0 -1.093 Z M 1.136 5.499 L 1.136 -2.106 C 1.136 -2.665 1.149 -3.303 1.187 -3.731 L .168 -3.731 L .116 -2.64 L .091 -2.64 C -.258 -3.342 -1.02 -3.874 -2.039 -3.874 C -3.55 -3.874 -4.712 -2.588 -4.712 -.677 C -4.725 1.417 -3.434 2.704 -1.91 2.704 C -.955 2.704 -.31 2.249 -.025 1.742 L 0 1.742 L 0 5.499 Z " fill="#231f20"/><path transform="matrix(1,0,0,-1,436.644,14.443207)" d="M 0 0 C .336 -.221 .93 -.455 1.498 -.455 C 2.324 -.455 2.711 -.039 2.711 .481 C 2.711 1.027 2.389 1.326 1.55 1.638 C .427 2.041 -.103 2.665 -.103 3.419 C -.103 4.434 .71 5.266 2.053 5.266 C 2.686 5.266 3.24 5.083 3.589 4.875 L 3.305 4.043 C 3.06 4.199 2.608 4.407 2.027 4.407 C 1.355 4.407 .981 4.018 .981 3.549 C .981 3.029 1.355 2.795 2.169 2.483 C 3.253 2.067 3.809 1.521 3.809 .585 C 3.809 -.52 2.956 -1.3 1.472 -1.3 C .788 -1.3 .155 -1.131 -.283 -.871 Z " fill="#231f20"/><path transform="matrix(1,0,0,-1,446.854,6.5906069)" d="M 0 0 C -.942 -1.274 -1.627 -2.964 -1.627 -5.317 C -1.627 -7.632 -.917 -9.296 0 -10.596 L -.891 -10.596 C -1.704 -9.517 -2.582 -7.853 -2.582 -5.317 C -2.569 -2.756 -1.704 -1.092 -.891 0 Z " fill="#231f20"/><path transform="matrix(1,0,0,-1,449.0473,13.090607)" d="M 0 0 C 0 -.144 .025 -.286 .052 -.416 C .271 -1.209 .93 -1.756 1.756 -1.756 C 2.943 -1.756 3.653 -.78 3.653 .663 C 3.653 1.924 3.008 3.003 1.794 3.003 C 1.02 3.003 .297 2.47 .064 1.599 C .039 1.469 0 1.312 0 1.131 Z M -1.175 -2.522 C -1.148 -2.094 -1.123 -1.456 -1.123 -.897 L -1.123 6.708 L 0 6.708 L 0 2.756 L .025 2.756 C .426 3.458 1.148 3.913 2.156 3.913 C 3.705 3.913 4.802 2.612 4.789 .701 C 4.789 -1.548 3.382 -2.665 1.988 -2.665 C 1.084 -2.665 .361 -2.314 -.104 -1.482 L -.142 -1.482 L -.193 -2.522 Z " fill="#231f20"/><path transform="matrix(1,0,0,-1,455.8354,12.480301)" d="M 0 0 C 0 -1.378 .787 -2.418 1.897 -2.418 C 2.981 -2.418 3.795 -1.391 3.795 .026 C 3.795 1.093 3.266 2.444 1.923 2.444 C .581 2.444 0 1.196 0 0 M 4.957 .065 C 4.957 -2.262 3.356 -3.275 1.846 -3.275 C .154 -3.275 -1.149 -2.027 -1.149 -.039 C -1.149 2.067 .22 3.303 1.949 3.303 C 3.743 3.303 4.957 1.989 4.957 .065 " fill="#231f20"/><path transform="matrix(1,0,0,-1,462.0942,11.283997)" d="M 0 0 C 0 .741 -.013 1.378 -.052 1.963 L .942 1.963 L .981 .729 L 1.032 .729 C 1.316 1.573 2.001 2.106 2.763 2.106 C 2.892 2.106 2.982 2.093 3.085 2.067 L 3.085 .988 C 2.969 1.014 2.853 1.027 2.698 1.027 C 1.897 1.027 1.33 .416 1.175 -.442 C 1.148 -.598 1.123 -.78 1.123 -.975 L 1.123 -4.329 L 0 -4.329 Z " fill="#231f20"/><path transform="matrix(1,0,0,-1,466.2358,11.283997)" d="M 0 0 C 0 .741 -.013 1.378 -.052 1.963 L .942 1.963 L .981 .729 L 1.032 .729 C 1.316 1.573 2.001 2.106 2.763 2.106 C 2.892 2.106 2.981 2.093 3.085 2.067 L 3.085 .988 C 2.969 1.014 2.853 1.027 2.698 1.027 C 1.897 1.027 1.329 .416 1.175 -.442 C 1.148 -.598 1.123 -.78 1.123 -.975 L 1.123 -4.329 L 0 -4.329 Z " fill="#231f20"/><path transform="matrix(1,0,0,-1,470.895,12.480301)" d="M 0 0 C 0 -1.378 .787 -2.418 1.897 -2.418 C 2.981 -2.418 3.795 -1.391 3.795 .026 C 3.795 1.093 3.266 2.444 1.923 2.444 C .581 2.444 0 1.196 0 0 M 4.957 .065 C 4.957 -2.262 3.356 -3.275 1.846 -3.275 C .154 -3.275 -1.149 -2.027 -1.149 -.039 C -1.149 2.067 .219 3.303 1.949 3.303 C 3.743 3.303 4.957 1.989 4.957 .065 " fill="#231f20"/><path transform="matrix(1,0,0,-1,477.5151,9.321106)" d="M 0 0 L .826 -3.198 C 1.007 -3.9 1.175 -4.55 1.29 -5.2 L 1.329 -5.2 C 1.472 -4.562 1.678 -3.887 1.885 -3.211 L 2.904 0 L 3.859 0 L 4.827 -3.146 C 5.06 -3.9 5.24 -4.562 5.383 -5.2 L 5.421 -5.2 C 5.524 -4.562 5.692 -3.9 5.899 -3.159 L 6.79 0 L 7.913 0 L 5.899 -6.292 L 4.866 -6.292 L 3.911 -3.289 C 3.691 -2.587 3.511 -1.963 3.356 -1.222 L 3.33 -1.222 C 3.175 -1.976 2.981 -2.626 2.762 -3.302 L 1.755 -6.292 L .723 -6.292 L -1.162 0 Z " fill="#231f20"/><path transform="matrix(1,0,0,-1,485.7485,17.18631)" d="M 0 0 C .917 1.287 1.627 2.978 1.627 5.317 C 1.627 7.645 .93 9.309 0 10.596 L .878 10.596 C 1.704 9.529 2.569 7.865 2.569 5.305 C 2.569 2.756 1.704 1.105 .878 0 Z " fill="#231f20"/><path transform="matrix(1,0,0,-1,430.8276,56.407007)" d="M 0 0 C -.413 -.208 -1.239 -.416 -2.298 -.416 C -4.751 -.416 -6.597 1.144 -6.597 4.017 C -6.597 6.76 -4.751 8.619 -2.053 8.619 C -.969 8.619 -.284 8.385 .013 8.229 L -.259 7.306 C -.685 7.515 -1.291 7.67 -2.014 7.67 C -4.054 7.67 -5.409 6.357 -5.409 4.056 C -5.409 1.911 -4.183 .533 -2.065 .533 C -1.382 .533 -.685 .676 -.232 .896 Z " fill="#231f20"/><path transform="matrix(1,0,0,-1,432.6206,53.560304)" d="M 0 0 C 0 -1.378 .787 -2.418 1.897 -2.418 C 2.981 -2.418 3.795 -1.391 3.795 .026 C 3.795 1.093 3.266 2.444 1.923 2.444 C .581 2.444 0 1.196 0 0 M 4.957 .065 C 4.957 -2.262 3.356 -3.275 1.846 -3.275 C .154 -3.275 -1.149 -2.027 -1.149 -.039 C -1.149 2.067 .219 3.303 1.949 3.303 C 3.743 3.303 4.957 1.989 4.957 .065 " fill="#231f20"/><path transform="matrix(1,0,0,-1,0,163.856)" d="M 438.879 116.393 L 440.01499 116.393 L 440.01499 107.162998 L 438.879 107.162998 Z " fill="#231f20"/><path transform="matrix(1,0,0,-1,0,163.856)" d="M 441.796 116.393 L 442.93199 116.393 L 442.93199 107.162998 L 441.796 107.162998 Z " fill="#231f20"/><path transform="matrix(1,0,0,-1,448.0044,53.4822)" d="M 0 0 C -1.239 .026 -2.646 -.195 -2.646 -1.417 C -2.646 -2.158 -2.156 -2.509 -1.575 -2.509 C -.762 -2.509 -.245 -1.989 -.064 -1.456 C -.026 -1.339 0 -1.209 0 -1.092 Z M .168 -3.211 L .077 -2.418 L .038 -2.418 C -.31 -2.912 -.981 -3.354 -1.872 -3.354 C -3.137 -3.354 -3.782 -2.457 -3.782 -1.547 C -3.782 -.025 -2.44 .807 -.026 .793 L -.026 .923 C -.026 1.443 -.168 2.379 -1.446 2.379 C -2.027 2.379 -2.634 2.197 -3.072 1.911 L -3.331 2.665 C -2.814 3.003 -2.065 3.225 -1.278 3.225 C .632 3.225 1.097 1.911 1.097 .65 L 1.097 -1.703 C 1.097 -2.249 1.123 -2.782 1.2 -3.211 Z " fill="#231f20"/><path transform="matrix(1,0,0,-1,452.1206,48.593507)" d="M 0 0 L 0 -1.808 L 1.627 -1.808 L 1.627 -2.679 L 0 -2.679 L 0 -6.071 C 0 -6.852 .22 -7.294 .853 -7.294 C 1.149 -7.294 1.368 -7.255 1.511 -7.216 L 1.562 -8.073 C 1.343 -8.165 .994 -8.229 .556 -8.229 C .026 -8.229 -.4 -8.061 -.671 -7.749 C -.994 -7.41 -1.11 -6.852 -1.11 -6.11 L -1.11 -2.679 L -2.078 -2.679 L -2.078 -1.808 L -1.11 -1.808 L -1.11 -.299 Z " fill="#231f20"/><path transform="matrix(1,0,0,-1,458.7807,52.936304)" d="M 0 0 C .013 .729 -.297 1.859 -1.575 1.859 C -2.724 1.859 -3.228 .793 -3.317 0 Z M -3.33 -.818 C -3.305 -2.366 -2.323 -3.003 -1.187 -3.003 C -.374 -3.003 .116 -2.859 .542 -2.678 L .736 -3.497 C .336 -3.679 -.349 -3.887 -1.343 -3.887 C -3.266 -3.887 -4.415 -2.612 -4.415 -.715 C -4.415 1.184 -3.305 2.679 -1.484 2.679 C .556 2.679 1.098 .871 1.098 -.286 C 1.098 -.52 1.071 -.702 1.059 -.818 Z " fill="#231f20"/><path transform="matrix(1,0,0,-1,461.1548,52.364007)" d="M 0 0 C 0 .741 -.013 1.378 -.052 1.963 L .942 1.963 L .981 .729 L 1.032 .729 C 1.316 1.573 2.001 2.106 2.763 2.106 C 2.892 2.106 2.981 2.093 3.085 2.067 L 3.085 .988 C 2.969 1.014 2.853 1.027 2.698 1.027 C 1.897 1.027 1.329 .416 1.175 -.442 C 1.148 -.598 1.123 -.78 1.123 -.975 L 1.123 -4.329 L 0 -4.329 Z " fill="#231f20"/><path transform="matrix(1,0,0,-1,468.4731,53.4822)" d="M 0 0 C -1.239 .026 -2.646 -.195 -2.646 -1.417 C -2.646 -2.158 -2.156 -2.509 -1.575 -2.509 C -.762 -2.509 -.245 -1.989 -.064 -1.456 C -.026 -1.339 0 -1.209 0 -1.092 Z M .168 -3.211 L .077 -2.418 L .038 -2.418 C -.31 -2.912 -.981 -3.354 -1.872 -3.354 C -3.137 -3.354 -3.782 -2.457 -3.782 -1.547 C -3.782 -.025 -2.44 .807 -.026 .793 L -.026 .923 C -.026 1.443 -.168 2.379 -1.446 2.379 C -2.027 2.379 -2.634 2.197 -3.072 1.911 L -3.331 2.665 C -2.814 3.003 -2.065 3.225 -1.278 3.225 C .632 3.225 1.097 1.911 1.097 .65 L 1.097 -1.703 C 1.097 -2.249 1.123 -2.782 1.2 -3.211 Z " fill="#231f20"/><path transform="matrix(1,0,0,-1,0,163.856)" d="M 471.273 116.393 L 472.409 116.393 L 472.409 107.162998 L 471.273 107.162998 Z " fill="#231f20"/><path transform="matrix(1,0,0,-1,137.5702,144.68921)" d="M 0 0 C .587 -.592 .587 -1.553 0 -2.145 C -.587 -2.738 -1.539 -2.738 -2.126 -2.145 L -10.145 5.946 C -10.732 6.539 -10.732 7.499 -10.145 8.091 L -2.126 16.182 C -1.539 16.775 -.587 16.775 0 16.182 C .587 15.59 .587 14.63 0 14.037 L -5.452 8.536 L 115.685 8.536 C 116.516 8.536 117.189 7.857 117.189 7.019 C 117.189 6.181 116.516 5.502 115.685 5.502 L -5.452 5.501 Z " fill="#90499c"/><path transform="matrix(1,0,0,-1,244.1738,115.161)" d="M 0 0 C -.587 .592 -.587 1.553 0 2.145 C .587 2.738 1.539 2.738 2.126 2.145 L 10.145 -5.946 C 10.732 -6.539 10.732 -7.499 10.145 -8.091 L 2.126 -16.182 C 1.539 -16.775 .587 -16.775 0 -16.182 C -.587 -15.59 -.587 -14.63 0 -14.037 L 5.452 -8.536 L -115.685 -8.536 C -116.516 -8.536 -117.189 -7.857 -117.189 -7.019 C -117.189 -6.181 -116.516 -5.502 -115.685 -5.502 L 5.452 -5.501 Z " fill="#90499c"/><path transform="matrix(1,0,0,-1,502.1306,79.3712)" d="M 0 0 C -.587 .592 -.587 1.553 0 2.145 C .587 2.738 1.539 2.738 2.126 2.145 L 10.145 -5.946 C 10.732 -6.539 10.732 -7.499 10.145 -8.091 L 2.126 -16.182 C 1.539 -16.775 .587 -16.775 0 -16.182 C -.587 -15.59 -.587 -14.63 0 -14.037 L 5.452 -8.536 L -115.685 -8.536 C -116.516 -8.536 -117.189 -7.857 -117.189 -7.019 C -117.189 -6.181 -116.516 -5.502 -115.685 -5.502 L 5.452 -5.501 Z " fill="#f16522"/><path transform="matrix(1,0,0,-1,439.104,70.7097)" d="M 0 0 L 4.686 0 L 4.686 -.949 L 1.123 -.949 L 1.123 -3.861 L 4.415 -3.861 L 4.415 -4.798 L 1.123 -4.798 L 1.123 -8.763 L 0 -8.763 Z " fill="#231f20"/><path transform="matrix(1,0,0,-1,448.7846,75.7156)" d="M 0 0 C .013 .729 -.297 1.859 -1.575 1.859 C -2.724 1.859 -3.228 .793 -3.317 0 Z M -3.331 -.818 C -3.305 -2.366 -2.323 -3.003 -1.187 -3.003 C -.374 -3.003 .116 -2.859 .542 -2.678 L .735 -3.497 C .336 -3.679 -.349 -3.887 -1.343 -3.887 C -3.266 -3.887 -4.415 -2.612 -4.415 -.715 C -4.415 1.184 -3.305 2.679 -1.484 2.679 C .555 2.679 1.097 .871 1.097 -.286 C 1.097 -.52 1.071 -.702 1.059 -.818 Z " fill="#231f20"/><path transform="matrix(1,0,0,-1,455.1206,75.7156)" d="M 0 0 C .014 .729 -.297 1.859 -1.574 1.859 C -2.724 1.859 -3.227 .793 -3.317 0 Z M -3.33 -.818 C -3.305 -2.366 -2.323 -3.003 -1.187 -3.003 C -.374 -3.003 .116 -2.859 .543 -2.678 L .736 -3.497 C .336 -3.679 -.349 -3.887 -1.342 -3.887 C -3.266 -3.887 -4.414 -2.612 -4.414 -.715 C -4.414 1.184 -3.305 2.679 -1.484 2.679 C .556 2.679 1.098 .871 1.098 -.286 C 1.098 -.52 1.072 -.702 1.059 -.818 Z " fill="#231f20"/><path transform="matrix(1,0,0,-1,243.6076,79.3712)" d="M 0 0 C -.587 .592 -.587 1.553 0 2.145 C .587 2.738 1.539 2.738 2.126 2.145 L 10.145 -5.946 C 10.732 -6.539 10.732 -7.499 10.145 -8.091 L 2.126 -16.182 C 1.539 -16.775 .587 -16.775 0 -16.182 C -.587 -15.59 -.587 -14.63 0 -14.037 L 5.452 -8.536 L -115.685 -8.536 C -116.516 -8.536 -117.189 -7.857 -117.189 -7.019 C -117.189 -6.181 -116.516 -5.502 -115.685 -5.502 L 5.452 -5.501 Z " fill="#f16522"/><path transform="matrix(1,0,0,-1,180.5805,70.7097)" d="M 0 0 L 4.687 0 L 4.687 -.949 L 1.123 -.949 L 1.123 -3.861 L 4.415 -3.861 L 4.415 -4.798 L 1.123 -4.798 L 1.123 -8.763 L 0 -8.763 Z " fill="#231f20"/><path transform="matrix(1,0,0,-1,190.2612,75.7156)" d="M 0 0 C .014 .729 -.297 1.859 -1.574 1.859 C -2.724 1.859 -3.227 .793 -3.317 0 Z M -3.33 -.818 C -3.305 -2.366 -2.323 -3.003 -1.187 -3.003 C -.374 -3.003 .116 -2.859 .543 -2.678 L .736 -3.497 C .336 -3.679 -.349 -3.887 -1.342 -3.887 C -3.266 -3.887 -4.414 -2.612 -4.414 -.715 C -4.414 1.184 -3.305 2.679 -1.484 2.679 C .556 2.679 1.098 .871 1.098 -.286 C 1.098 -.52 1.072 -.702 1.059 -.818 Z " fill="#231f20"/><path transform="matrix(1,0,0,-1,196.5981,75.7156)" d="M 0 0 C .013 .729 -.297 1.859 -1.575 1.859 C -2.724 1.859 -3.228 .793 -3.317 0 Z M -3.331 -.818 C -3.305 -2.366 -2.324 -3.003 -1.187 -3.003 C -.374 -3.003 .116 -2.859 .542 -2.678 L .735 -3.497 C .336 -3.679 -.349 -3.887 -1.343 -3.887 C -3.266 -3.887 -4.415 -2.612 -4.415 -.715 C -4.415 1.184 -3.305 2.679 -1.484 2.679 C .555 2.679 1.097 .871 1.097 -.286 C 1.097 -.52 1.071 -.702 1.059 -.818 Z " fill="#231f20"/><path transform="matrix(1,0,0,-1,502.1306,33.063997)" d="M 0 0 C -.587 .592 -.587 1.553 0 2.145 C .587 2.738 1.539 2.738 2.126 2.145 L 10.145 -5.946 C 10.732 -6.539 10.732 -7.499 10.145 -8.091 L 2.126 -16.182 C 1.539 -16.775 .587 -16.775 0 -16.182 C -.587 -15.59 -.587 -14.63 0 -14.037 L 5.452 -8.536 L 4.805 -8.536 C 3.974 -8.536 3.301 -7.857 3.301 -7.019 C 3.301 -6.181 3.974 -5.502 4.805 -5.502 L 5.452 -5.501 Z " fill="#163d8d"/><path transform="matrix(1,0,0,-1,386.3309,40.082506)" stroke-width="3" stroke-linecap="round" stroke-dasharray="10,6.5" stroke-miterlimit="10" fill="none" stroke="#163d8d" d="M 0 0 L 124.453 0 "/><path transform="matrix(1,0,0,-1,394.9165,30.84581)" d="M 0 0 C .587 -.592 .587 -1.553 0 -2.145 C -.587 -2.738 -1.539 -2.738 -2.126 -2.145 L -10.145 5.946 C -10.732 6.539 -10.732 7.499 -10.145 8.091 L -2.126 16.182 C -1.539 16.775 -.587 16.775 0 16.182 C .587 15.59 .587 14.63 0 14.037 L -5.452 8.536 L -4.805 8.536 C -3.974 8.536 -3.301 7.857 -3.301 7.019 C -3.301 6.181 -3.974 5.502 -4.805 5.502 L -5.452 5.502 Z " fill="#163d8d"/><path transform="matrix(1,0,0,-1,510.7161,23.827103)" stroke-width="3" stroke-linecap="round" stroke-dasharray="10,6.5" stroke-miterlimit="10" fill="none" stroke="#163d8d" d="M 0 0 L -124.453 0 "/><path transform="matrix(1,0,0,-1,151.8794,14.7547)" d="M 0 0 C .219 -.039 .542 -.053 .942 -.053 C 2.104 -.053 3.175 .377 3.175 1.65 C 3.175 2.847 2.155 3.341 .929 3.341 L 0 3.341 Z M 0 4.199 L 1.02 4.199 C 2.207 4.199 2.904 4.823 2.904 5.668 C 2.904 6.695 2.13 7.098 .993 7.098 C .478 7.098 .181 7.059 0 7.02 Z M -1.123 7.787 C -.633 7.891 .142 7.969 .929 7.969 C 2.052 7.969 2.775 7.773 3.317 7.332 C 3.77 6.994 4.04 6.474 4.04 5.785 C 4.04 4.939 3.485 4.199 2.568 3.86 L 2.568 3.835 C 3.395 3.627 4.363 2.938 4.363 1.638 C 4.363 .884 4.066 .312 3.627 -.117 C 3.021 -.677 2.039 -.937 .619 -.937 C -.155 -.937 -.749 -.885 -1.123 -.832 Z " fill="#231f20"/><path transform="matrix(1,0,0,-1,158.3325,12.480301)" d="M 0 0 C 0 -1.378 .787 -2.418 1.897 -2.418 C 2.981 -2.418 3.795 -1.391 3.795 .026 C 3.795 1.093 3.266 2.444 1.923 2.444 C .581 2.444 0 1.196 0 0 M 4.957 .065 C 4.957 -2.262 3.356 -3.275 1.846 -3.275 C .154 -3.275 -1.149 -2.027 -1.149 -.039 C -1.149 2.067 .22 3.303 1.949 3.303 C 3.743 3.303 4.957 1.989 4.957 .065 " fill="#231f20"/><path transform="matrix(1,0,0,-1,164.5913,11.0242)" d="M 0 0 C 0 .65 -.013 1.184 -.052 1.703 L .955 1.703 L 1.02 .663 L 1.046 .663 C 1.355 1.262 2.078 1.847 3.111 1.847 C 3.976 1.847 5.318 1.326 5.318 -.832 L 5.318 -4.589 L 4.183 -4.589 L 4.183 -.962 C 4.183 .053 3.809 .897 2.736 .897 C 1.988 .897 1.407 .364 1.214 -.272 C 1.162 -.416 1.136 -.61 1.136 -.806 L 1.136 -4.589 L 0 -4.589 Z " fill="#231f20"/><path transform="matrix(1,0,0,-1,175.8852,11.881607)" d="M 0 0 C 0 .143 -.013 .338 -.052 .48 C -.22 1.209 -.839 1.807 -1.69 1.807 C -2.865 1.807 -3.563 .767 -3.563 -.624 C -3.563 -1.898 -2.943 -2.951 -1.717 -2.951 C -.955 -2.951 -.258 -2.444 -.052 -1.586 C -.013 -1.431 0 -1.274 0 -1.093 Z M 1.136 5.499 L 1.136 -2.106 C 1.136 -2.665 1.149 -3.303 1.187 -3.731 L .168 -3.731 L .116 -2.64 L .091 -2.64 C -.258 -3.342 -1.02 -3.874 -2.039 -3.874 C -3.55 -3.874 -4.712 -2.588 -4.712 -.677 C -4.725 1.417 -3.434 2.704 -1.91 2.704 C -.955 2.704 -.31 2.249 -.025 1.742 L 0 1.742 L 0 5.499 Z " fill="#231f20"/><path transform="matrix(1,0,0,-1,178.6196,14.443207)" d="M 0 0 C .336 -.221 .93 -.455 1.498 -.455 C 2.324 -.455 2.711 -.039 2.711 .481 C 2.711 1.027 2.389 1.326 1.55 1.638 C .427 2.041 -.103 2.665 -.103 3.419 C -.103 4.434 .71 5.266 2.053 5.266 C 2.686 5.266 3.24 5.083 3.589 4.875 L 3.305 4.043 C 3.06 4.199 2.608 4.407 2.027 4.407 C 1.355 4.407 .981 4.018 .981 3.549 C .981 3.029 1.355 2.795 2.169 2.483 C 3.253 2.067 3.809 1.521 3.809 .585 C 3.809 -.52 2.956 -1.3 1.472 -1.3 C .788 -1.3 .155 -1.131 -.283 -.871 Z " fill="#231f20"/><path transform="matrix(1,0,0,-1,188.8296,6.5906069)" d="M 0 0 C -.942 -1.274 -1.627 -2.964 -1.627 -5.317 C -1.627 -7.632 -.917 -9.296 0 -10.596 L -.891 -10.596 C -1.704 -9.517 -2.582 -7.853 -2.582 -5.317 C -2.569 -2.756 -1.704 -1.092 -.891 0 Z " fill="#231f20"/><path transform="matrix(1,0,0,-1,191.0229,13.090607)" d="M 0 0 C 0 -.144 .025 -.286 .052 -.416 C .271 -1.209 .93 -1.756 1.756 -1.756 C 2.943 -1.756 3.653 -.78 3.653 .663 C 3.653 1.924 3.008 3.003 1.794 3.003 C 1.02 3.003 .297 2.47 .064 1.599 C .039 1.469 0 1.312 0 1.131 Z M -1.175 -2.522 C -1.148 -2.094 -1.123 -1.456 -1.123 -.897 L -1.123 6.708 L 0 6.708 L 0 2.756 L .025 2.756 C .426 3.458 1.148 3.913 2.156 3.913 C 3.705 3.913 4.802 2.612 4.789 .701 C 4.789 -1.548 3.382 -2.665 1.988 -2.665 C 1.084 -2.665 .361 -2.314 -.104 -1.482 L -.142 -1.482 L -.193 -2.522 Z " fill="#231f20"/><path transform="matrix(1,0,0,-1,197.811,12.480301)" d="M 0 0 C 0 -1.378 .787 -2.418 1.897 -2.418 C 2.981 -2.418 3.795 -1.391 3.795 .026 C 3.795 1.093 3.266 2.444 1.923 2.444 C .581 2.444 0 1.196 0 0 M 4.957 .065 C 4.957 -2.262 3.356 -3.275 1.846 -3.275 C .154 -3.275 -1.149 -2.027 -1.149 -.039 C -1.149 2.067 .22 3.303 1.949 3.303 C 3.743 3.303 4.957 1.989 4.957 .065 " fill="#231f20"/><path transform="matrix(1,0,0,-1,204.0698,11.283997)" d="M 0 0 C 0 .741 -.013 1.378 -.052 1.963 L .942 1.963 L .981 .729 L 1.032 .729 C 1.316 1.573 2.001 2.106 2.763 2.106 C 2.892 2.106 2.982 2.093 3.085 2.067 L 3.085 .988 C 2.969 1.014 2.853 1.027 2.698 1.027 C 1.897 1.027 1.33 .416 1.175 -.442 C 1.148 -.598 1.123 -.78 1.123 -.975 L 1.123 -4.329 L 0 -4.329 Z " fill="#231f20"/><path transform="matrix(1,0,0,-1,208.2114,11.283997)" d="M 0 0 C 0 .741 -.013 1.378 -.052 1.963 L .942 1.963 L .981 .729 L 1.032 .729 C 1.316 1.573 2.001 2.106 2.763 2.106 C 2.892 2.106 2.981 2.093 3.085 2.067 L 3.085 .988 C 2.969 1.014 2.853 1.027 2.698 1.027 C 1.897 1.027 1.329 .416 1.175 -.442 C 1.148 -.598 1.123 -.78 1.123 -.975 L 1.123 -4.329 L 0 -4.329 Z " fill="#231f20"/><path transform="matrix(1,0,0,-1,212.8706,12.480301)" d="M 0 0 C 0 -1.378 .787 -2.418 1.897 -2.418 C 2.981 -2.418 3.795 -1.391 3.795 .026 C 3.795 1.093 3.266 2.444 1.923 2.444 C .581 2.444 0 1.196 0 0 M 4.957 .065 C 4.957 -2.262 3.356 -3.275 1.846 -3.275 C .154 -3.275 -1.149 -2.027 -1.149 -.039 C -1.149 2.067 .219 3.303 1.949 3.303 C 3.743 3.303 4.957 1.989 4.957 .065 " fill="#231f20"/><path transform="matrix(1,0,0,-1,219.4907,9.321106)" d="M 0 0 L .826 -3.198 C 1.007 -3.9 1.175 -4.55 1.29 -5.2 L 1.329 -5.2 C 1.472 -4.562 1.678 -3.887 1.885 -3.211 L 2.904 0 L 3.859 0 L 4.827 -3.146 C 5.06 -3.9 5.24 -4.562 5.383 -5.2 L 5.421 -5.2 C 5.524 -4.562 5.692 -3.9 5.899 -3.159 L 6.79 0 L 7.913 0 L 5.899 -6.292 L 4.866 -6.292 L 3.911 -3.289 C 3.691 -2.587 3.511 -1.963 3.356 -1.222 L 3.33 -1.222 C 3.175 -1.976 2.981 -2.626 2.762 -3.302 L 1.755 -6.292 L .723 -6.292 L -1.162 0 Z " fill="#231f20"/><path transform="matrix(1,0,0,-1,227.7241,17.18631)" d="M 0 0 C .917 1.287 1.627 2.978 1.627 5.317 C 1.627 7.645 .93 9.309 0 10.596 L .878 10.596 C 1.704 9.529 2.569 7.865 2.569 5.305 C 2.569 2.756 1.704 1.105 .878 0 Z " fill="#231f20"/><path transform="matrix(1,0,0,-1,172.8032,56.407007)" d="M 0 0 C -.413 -.208 -1.239 -.416 -2.298 -.416 C -4.751 -.416 -6.597 1.144 -6.597 4.017 C -6.597 6.76 -4.751 8.619 -2.053 8.619 C -.969 8.619 -.284 8.385 .013 8.229 L -.259 7.306 C -.685 7.515 -1.291 7.67 -2.014 7.67 C -4.054 7.67 -5.409 6.357 -5.409 4.056 C -5.409 1.911 -4.183 .533 -2.065 .533 C -1.382 .533 -.685 .676 -.232 .896 Z " fill="#231f20"/><path transform="matrix(1,0,0,-1,174.5962,53.560304)" d="M 0 0 C 0 -1.378 .787 -2.418 1.897 -2.418 C 2.981 -2.418 3.795 -1.391 3.795 .026 C 3.795 1.093 3.266 2.444 1.923 2.444 C .581 2.444 0 1.196 0 0 M 4.957 .065 C 4.957 -2.262 3.356 -3.275 1.846 -3.275 C .154 -3.275 -1.149 -2.027 -1.149 -.039 C -1.149 2.067 .219 3.303 1.949 3.303 C 3.743 3.303 4.957 1.989 4.957 .065 " fill="#231f20"/><path transform="matrix(1,0,0,-1,0,163.856)" d="M 180.855 116.393 L 181.991 116.393 L 181.991 107.162998 L 180.855 107.162998 Z " fill="#231f20"/><path transform="matrix(1,0,0,-1,0,163.856)" d="M 183.772 116.393 L 184.908 116.393 L 184.908 107.162998 L 183.772 107.162998 Z " fill="#231f20"/><path transform="matrix(1,0,0,-1,189.9799,53.4822)" d="M 0 0 C -1.239 .026 -2.646 -.195 -2.646 -1.417 C -2.646 -2.158 -2.156 -2.509 -1.575 -2.509 C -.762 -2.509 -.245 -1.989 -.064 -1.456 C -.026 -1.339 0 -1.209 0 -1.092 Z M .168 -3.211 L .077 -2.418 L .038 -2.418 C -.31 -2.912 -.981 -3.354 -1.872 -3.354 C -3.137 -3.354 -3.782 -2.457 -3.782 -1.547 C -3.782 -.025 -2.44 .807 -.026 .793 L -.026 .923 C -.026 1.443 -.168 2.379 -1.446 2.379 C -2.027 2.379 -2.634 2.197 -3.072 1.911 L -3.331 2.665 C -2.814 3.003 -2.065 3.225 -1.278 3.225 C .632 3.225 1.097 1.911 1.097 .65 L 1.097 -1.703 C 1.097 -2.249 1.123 -2.782 1.2 -3.211 Z " fill="#231f20"/><path transform="matrix(1,0,0,-1,194.0962,48.593507)" d="M 0 0 L 0 -1.808 L 1.627 -1.808 L 1.627 -2.679 L 0 -2.679 L 0 -6.071 C 0 -6.852 .22 -7.294 .853 -7.294 C 1.149 -7.294 1.368 -7.255 1.511 -7.216 L 1.562 -8.073 C 1.343 -8.165 .994 -8.229 .556 -8.229 C .026 -8.229 -.4 -8.061 -.671 -7.749 C -.994 -7.41 -1.11 -6.852 -1.11 -6.11 L -1.11 -2.679 L -2.078 -2.679 L -2.078 -1.808 L -1.11 -1.808 L -1.11 -.299 Z " fill="#231f20"/><path transform="matrix(1,0,0,-1,200.7563,52.936304)" d="M 0 0 C .013 .729 -.297 1.859 -1.575 1.859 C -2.724 1.859 -3.228 .793 -3.317 0 Z M -3.33 -.818 C -3.305 -2.366 -2.323 -3.003 -1.187 -3.003 C -.374 -3.003 .116 -2.859 .542 -2.678 L .736 -3.497 C .336 -3.679 -.349 -3.887 -1.343 -3.887 C -3.266 -3.887 -4.415 -2.612 -4.415 -.715 C -4.415 1.184 -3.305 2.679 -1.484 2.679 C .556 2.679 1.098 .871 1.098 -.286 C 1.098 -.52 1.071 -.702 1.059 -.818 Z " fill="#231f20"/><path transform="matrix(1,0,0,-1,203.1303,52.364007)" d="M 0 0 C 0 .741 -.013 1.378 -.052 1.963 L .942 1.963 L .981 .729 L 1.032 .729 C 1.316 1.573 2.001 2.106 2.763 2.106 C 2.892 2.106 2.981 2.093 3.085 2.067 L 3.085 .988 C 2.969 1.014 2.853 1.027 2.698 1.027 C 1.897 1.027 1.329 .416 1.175 -.442 C 1.148 -.598 1.123 -.78 1.123 -.975 L 1.123 -4.329 L 0 -4.329 Z " fill="#231f20"/><path transform="matrix(1,0,0,-1,210.4487,53.4822)" d="M 0 0 C -1.239 .026 -2.646 -.195 -2.646 -1.417 C -2.646 -2.158 -2.156 -2.509 -1.575 -2.509 C -.762 -2.509 -.245 -1.989 -.064 -1.456 C -.026 -1.339 0 -1.209 0 -1.092 Z M .168 -3.211 L .077 -2.418 L .038 -2.418 C -.31 -2.912 -.981 -3.354 -1.872 -3.354 C -3.137 -3.354 -3.782 -2.457 -3.782 -1.547 C -3.782 -.025 -2.44 .807 -.026 .793 L -.026 .923 C -.026 1.443 -.168 2.379 -1.446 2.379 C -2.027 2.379 -2.634 2.197 -3.072 1.911 L -3.331 2.665 C -2.814 3.003 -2.065 3.225 -1.278 3.225 C .632 3.225 1.097 1.911 1.097 .65 L 1.097 -1.703 C 1.097 -2.249 1.123 -2.782 1.2 -3.211 Z " fill="#231f20"/><path transform="matrix(1,0,0,-1,0,163.856)" d="M 213.249 116.393 L 214.385 116.393 L 214.385 107.162998 L 213.249 107.162998 Z " fill="#231f20"/><path transform="matrix(1,0,0,-1,244.1062,33.063997)" d="M 0 0 C -.587 .592 -.587 1.553 0 2.145 C .587 2.738 1.539 2.738 2.126 2.145 L 10.145 -5.946 C 10.732 -6.539 10.732 -7.499 10.145 -8.091 L 2.126 -16.182 C 1.539 -16.775 .587 -16.775 0 -16.182 C -.587 -15.59 -.587 -14.63 0 -14.037 L 5.452 -8.536 L 4.805 -8.536 C 3.974 -8.536 3.301 -7.857 3.301 -7.019 C 3.301 -6.181 3.974 -5.502 4.805 -5.502 L 5.452 -5.501 Z " fill="#163d8d"/><path transform="matrix(1,0,0,-1,128.3065,40.082506)" stroke-width="3" stroke-linecap="round" stroke-dasharray="10,6.5" stroke-miterlimit="10" fill="none" stroke="#163d8d" d="M 0 0 L 124.453 0 "/><path transform="matrix(1,0,0,-1,136.8921,30.84581)" d="M 0 0 C .587 -.592 .587 -1.553 0 -2.145 C -.587 -2.738 -1.539 -2.738 -2.126 -2.145 L -10.145 5.946 C -10.732 6.539 -10.732 7.499 -10.145 8.091 L -2.126 16.182 C -1.539 16.775 -.587 16.775 0 16.182 C .587 15.59 .587 14.63 0 14.037 L -5.452 8.536 L -4.805 8.536 C -3.974 8.536 -3.301 7.857 -3.301 7.019 C -3.301 6.181 -3.974 5.502 -4.805 5.502 L -5.452 5.502 Z " fill="#163d8d"/><path transform="matrix(1,0,0,-1,252.6917,23.827103)" stroke-width="3" stroke-linecap="round" stroke-dasharray="10,6.5" stroke-miterlimit="10" fill="none" stroke="#163d8d" d="M 0 0 L -124.453 0 "/><path transform="matrix(1,0,0,-1,73.8576,54.939607)" d="M 0 0 C .996 -.062 1.938 .662 1.929 1.721 L 1.929 3.012 C 1.922 3.135 1.882 3.291 1.703 3.391 L -11.715 10.829 C -12.368 11.191 -13.148 11.191 -13.801 10.829 L -20.991 6.844 L -21.151 6.755 L -21.187 6.735 L -27.219 3.391 C -27.318 3.333 -27.447 3.209 -27.445 3.012 L -27.445 1.721 C -27.455 .708 -26.538 -.111 -25.516 0 L -24.003 -2.13 L -24.003 -12.69 L -25.516 -14.819 L -26.441 -14.819 C -26.995 -14.819 -27.445 -15.27 -27.445 -15.823 L -27.445 -17.258 C -27.445 -17.812 -26.995 -18.262 -26.441 -18.262 L .925 -18.262 C 1.479 -18.262 1.929 -17.812 1.929 -17.258 L 1.929 -15.823 C 1.929 -15.27 1.479 -14.819 .925 -14.819 L 0 -14.819 L -1.513 -12.69 L -1.513 -2.13 Z " fill="#ffffff"/><path transform="matrix(1,0,0,-1,61.0009,58.379304)" d="M 0 0 C -2.189 0 -3.971 -1.781 -3.971 -3.97 C -3.971 -6.159 -2.189 -7.94 0 -7.94 C 2.188 -7.94 3.97 -6.159 3.97 -3.97 C 3.97 -1.781 2.188 0 0 0 M 0 -9 C -2.773 -9 -5.03 -6.743 -5.03 -3.97 C -5.03 -1.196 -2.773 1.061 0 1.061 C 2.773 1.061 5.029 -1.196 5.029 -3.97 C 5.029 -6.743 2.773 -9 0 -9 "/><path transform="matrix(1,0,0,-1,61.0009,47.396806)" d="M 0 0 C -.562 0 -1.02 -.458 -1.02 -1.02 C -1.02 -1.581 -.562 -2.039 0 -2.039 C .562 -2.039 1.019 -1.581 1.019 -1.02 C 1.019 -.458 .562 0 0 0 M 0 -3.099 C -1.146 -3.099 -2.079 -2.166 -2.079 -1.02 C -2.079 .127 -1.146 1.06 0 1.06 C 1.146 1.06 2.079 .127 2.079 -1.02 C 2.079 -2.166 1.146 -3.099 0 -3.099 "/><path transform="matrix(1,0,0,-1,73.3055,51.397806)" d="M 0 0 L -11.629 6.447 C -11.807 6.546 -12.007 6.598 -12.207 6.598 C -12.407 6.598 -12.606 6.546 -12.783 6.448 L -24.413 0 Z M -25.934 -1.82 C -25.934 -2.239 -25.592 -2.581 -25.173 -2.581 L .76 -2.581 C 1.179 -2.581 1.521 -2.239 1.521 -1.82 L 1.521 -1.06 L -25.934 -1.06 Z M -4.545 -5.047 L -1.614 -5.005 L -.692 -3.642 L -5.543 -3.642 Z M -22.718 -5.047 L -19.786 -5.005 L -18.865 -3.642 L -23.715 -3.642 Z M -20.094 -6.064 L -22.491 -6.064 L -22.491 -15.838 L -20.094 -15.838 Z M -1.922 -6.064 L -4.318 -6.064 L -4.318 -15.838 L -1.922 -15.838 Z M -18.87 -18.262 L -19.867 -16.857 L -22.747 -16.899 L -23.715 -18.262 Z M -.697 -18.262 L -1.694 -16.857 L -4.574 -16.899 L -5.543 -18.262 Z M -19.053 -5.729 L -19.034 -16.231 L -17.54 -18.304 L -6.792 -18.262 L -5.36 -16.174 L -5.379 -13.891 L -5.379 -5.671 L -6.873 -3.6 L -17.569 -3.642 Z M -25.89 -19.321 C -25.914 -19.321 -25.934 -19.341 -25.934 -19.365 L -25.934 -20.8 L 1.477 -20.844 L 1.521 -19.365 Z M -25.89 -21.903 C -26.498 -21.903 -26.993 -21.408 -26.993 -20.8 L -26.993 -19.365 C -26.993 -18.757 -26.498 -18.262 -25.89 -18.262 L -24.965 -18.262 L -23.532 -16.174 L -23.551 -5.671 L -25.013 -3.646 C -25.059 -3.65 -25.105 -3.652 -25.15 -3.652 C -25.638 -3.652 -26.117 -3.45 -26.467 -3.098 C -26.811 -2.75 -26.998 -2.296 -26.993 -1.819 L -26.993 -.53 C -26.996 -.249 -26.783 -.104 -26.719 -.065 L -13.299 7.376 C -12.963 7.562 -12.586 7.659 -12.206 7.659 C -11.827 7.659 -11.45 7.562 -11.114 7.376 L 2.304 -.063 C 2.476 -.159 2.568 -.314 2.58 -.524 L 2.58 -1.82 C 2.584 -2.292 2.403 -2.737 2.071 -3.072 C 1.71 -3.437 1.2 -3.646 .671 -3.646 L .546 -3.642 L -.88 -5.729 L -.861 -16.231 L .633 -18.304 L 1.477 -18.262 C 2.085 -18.262 2.58 -18.757 2.58 -19.365 L 2.58 -20.8 C 2.58 -21.408 2.085 -21.903 1.477 -21.903 Z "/><path transform="matrix(1,0,0,-1,60.9999,65.748409)" d="M 0 0 C -.14 0 -.27 .055 -.366 .153 C -.462 .251 -.515 .386 -.512 .522 L -.512 .785 C -1.124 .926 -1.747 1.354 -1.747 2.163 C -1.75 2.299 -1.697 2.434 -1.602 2.53 C -1.505 2.629 -1.371 2.685 -1.235 2.685 C -1.098 2.685 -.965 2.629 -.869 2.53 C -.772 2.434 -.72 2.299 -.724 2.16 C -.724 1.891 -.359 1.748 0 1.748 C .359 1.748 .724 1.891 .724 2.163 C .724 2.452 .656 2.519 .537 2.611 C .392 2.725 .112 2.823 -.161 2.915 C -.522 3.035 -.86 3.147 -1.164 3.384 C -1.529 3.668 -1.747 4.137 -1.747 4.638 C -1.747 5.322 -1.276 5.844 -.512 6.016 L -.512 6.281 C -.516 6.561 -.29 6.793 -.009 6.798 L -.008 6.798 C .137 6.798 .265 6.746 .361 6.65 C .46 6.552 .515 6.417 .512 6.279 L .512 6.015 C 1.124 5.874 1.748 5.445 1.748 4.638 C 1.748 4.502 1.695 4.373 1.599 4.275 C 1.502 4.179 1.373 4.126 1.235 4.126 C 1.099 4.126 .97 4.179 .874 4.275 C .776 4.372 .724 4.501 .724 4.638 C .724 4.91 .359 5.054 0 5.054 C -.359 5.054 -.724 4.91 -.724 4.638 C -.724 4.35 -.656 4.283 -.537 4.19 C -.392 4.077 -.112 3.979 .161 3.887 C .515 3.771 .856 3.657 1.165 3.417 C 1.53 3.133 1.748 2.664 1.748 2.163 C 1.748 1.353 1.124 .925 .512 .785 L .512 .521 C .516 .387 .463 .252 .366 .154 C .272 .056 .139 0 0 0 "/><path transform="matrix(1,0,0,-1,536.5266,87.001)" d="M 0 0 L .45 0 C 1.368 0 1.864 .349 1.864 1.433 C 1.864 2.25 1.341 2.773 .523 2.773 C .248 2.773 .129 2.746 0 2.737 Z M -1.176 2.131 C -1.176 2.801 -1.543 2.829 -1.828 2.829 L -1.993 2.829 L -1.993 3.104 C -1.699 3.104 -1.13 3.067 -.569 3.067 C -.018 3.067 .422 3.104 .909 3.104 C 2.066 3.104 3.095 2.792 3.095 1.488 C 3.095 .661 2.544 .156 1.818 -.129 L 3.389 -2.48 C 3.646 -2.866 3.83 -2.976 4.28 -3.031 L 4.28 -3.307 C 3.977 -3.307 3.683 -3.27 3.38 -3.27 C 3.095 -3.27 2.801 -3.307 2.517 -3.307 C 1.809 -2.379 1.203 -1.387 .606 -.331 L 0 -.331 L 0 -2.296 C 0 -3.004 .331 -3.031 .753 -3.031 L .919 -3.031 L .919 -3.307 C .395 -3.307 -.138 -3.27 -.661 -3.27 C -1.102 -3.27 -1.534 -3.307 -1.993 -3.307 L -1.993 -3.031 L -1.828 -3.031 C -1.488 -3.031 -1.176 -2.875 -1.176 -2.535 Z " fill="#ffffff"/><path transform="matrix(1,0,0,-1,542.78,90.031909)" d="M 0 0 L .129 0 C .459 0 .808 .046 .808 .523 L .808 5.336 C .808 5.813 .459 5.859 .129 5.859 L 0 5.859 L 0 6.135 C .56 6.135 1.515 6.098 2.287 6.098 C 3.058 6.098 4.014 6.135 4.638 6.135 C 4.62 5.74 4.629 5.134 4.656 4.73 L 4.381 4.656 C 4.335 5.253 4.225 5.731 3.26 5.731 L 1.984 5.731 L 1.984 3.325 L 3.077 3.325 C 3.628 3.325 3.747 3.637 3.802 4.133 L 4.078 4.133 C 4.06 3.775 4.05 3.416 4.05 3.058 C 4.05 2.709 4.06 2.36 4.078 2.011 L 3.802 1.956 C 3.747 2.507 3.72 2.865 3.086 2.865 L 1.984 2.865 L 1.984 .725 C 1.984 .128 2.517 .128 3.104 .128 C 4.206 .128 4.693 .202 4.969 1.249 L 5.226 1.185 C 5.107 .698 4.996 .211 4.914 -.276 C 4.326 -.276 3.27 -.239 2.443 -.239 C 1.616 -.239 .524 -.276 0 -.276 Z " fill="#ffffff"/><path transform="matrix(1,0,0,-1,553.543,85.2562)" d="M 0 0 C -.064 .597 -.45 1.166 -1.084 1.166 C -1.809 1.166 -2.213 .735 -2.213 .009 C -2.213 -1.515 .542 -1.056 .542 -3.26 C .542 -4.528 -.505 -5.189 -1.681 -5.189 C -2.195 -5.189 -2.691 -5.005 -3.141 -4.776 C -3.187 -4.307 -3.251 -3.848 -3.297 -3.38 L -3.04 -3.325 C -2.93 -4.105 -2.489 -4.785 -1.616 -4.785 C -.992 -4.785 -.487 -4.39 -.487 -3.738 C -.487 -2.112 -3.187 -2.617 -3.187 -.404 C -3.187 .79 -2.342 1.497 -1.157 1.497 C -.9 1.497 -.119 1.396 .165 1.359 C .165 .928 .202 .487 .257 .046 Z " fill="#ffffff"/><path transform="matrix(1,0,0,-1,556.4721,90.031909)" d="M 0 0 L .129 0 C .459 0 .808 .046 .808 .523 L .808 5.336 C .808 5.813 .459 5.859 .129 5.859 L 0 5.859 L 0 6.135 C .56 6.135 1.515 6.098 2.287 6.098 C 3.058 6.098 4.014 6.135 4.638 6.135 C 4.62 5.74 4.629 5.134 4.656 4.73 L 4.381 4.656 C 4.335 5.253 4.225 5.731 3.26 5.731 L 1.984 5.731 L 1.984 3.325 L 3.077 3.325 C 3.628 3.325 3.747 3.637 3.802 4.133 L 4.078 4.133 C 4.06 3.775 4.05 3.416 4.05 3.058 C 4.05 2.709 4.06 2.36 4.078 2.011 L 3.802 1.956 C 3.747 2.507 3.72 2.865 3.086 2.865 L 1.984 2.865 L 1.984 .725 C 1.984 .128 2.517 .128 3.104 .128 C 4.206 .128 4.693 .202 4.969 1.249 L 5.226 1.185 C 5.107 .698 4.996 .211 4.914 -.276 C 4.326 -.276 3.27 -.239 2.443 -.239 C 1.616 -.239 .524 -.276 0 -.276 Z " fill="#ffffff"/><path transform="matrix(1,0,0,-1,565.9494,87.001)" d="M 0 0 L .45 0 C 1.368 0 1.864 .349 1.864 1.433 C 1.864 2.25 1.341 2.773 .523 2.773 C .248 2.773 .129 2.746 0 2.737 Z M -1.176 2.131 C -1.176 2.801 -1.543 2.829 -1.828 2.829 L -1.993 2.829 L -1.993 3.104 C -1.699 3.104 -1.13 3.067 -.569 3.067 C -.018 3.067 .422 3.104 .909 3.104 C 2.066 3.104 3.095 2.792 3.095 1.488 C 3.095 .661 2.544 .156 1.818 -.129 L 3.389 -2.48 C 3.646 -2.866 3.83 -2.976 4.28 -3.031 L 4.28 -3.307 C 3.977 -3.307 3.683 -3.27 3.38 -3.27 C 3.095 -3.27 2.801 -3.307 2.517 -3.307 C 1.809 -2.379 1.203 -1.387 .606 -.331 L 0 -.331 L 0 -2.296 C 0 -3.004 .331 -3.031 .753 -3.031 L .918 -3.031 L .918 -3.307 C .395 -3.307 -.138 -3.27 -.661 -3.27 C -1.102 -3.27 -1.534 -3.307 -1.993 -3.307 L -1.993 -3.031 L -1.828 -3.031 C -1.488 -3.031 -1.176 -2.875 -1.176 -2.535 Z " fill="#ffffff"/><path transform="matrix(1,0,0,-1,574.0032,84.1725)" d="M 0 0 L -.211 0 C -.551 0 -.689 -.138 -.689 -.257 C -.689 -.303 -.652 -.432 -.606 -.551 L .964 -4.638 L .983 -4.638 L 2.443 -.817 C 2.553 -.533 2.563 -.367 2.563 -.303 C 2.563 -.037 2.287 0 1.975 0 L 1.818 0 L 1.818 .276 C 2.14 .276 2.489 .239 2.884 .239 C 3.169 .239 3.462 .276 3.729 .276 L 3.729 0 L 3.637 0 C 3.472 0 3.297 -.027 3.15 -.321 C 3.077 -.45 1.736 -3.839 1.139 -5.364 C 1.02 -5.667 .873 -5.97 .762 -6.273 L .422 -6.273 L -1.91 -.523 C -2.085 -.092 -2.278 0 -2.682 0 L -2.774 0 L -2.774 .276 C -2.305 .276 -1.828 .239 -1.359 .239 C -.909 .239 -.266 .276 0 .276 Z " fill="#ffffff"/><path transform="matrix(1,0,0,-1,579.4392,90.031909)" d="M 0 0 L .128 0 C .459 0 .808 .046 .808 .523 L .808 5.336 C .808 5.813 .459 5.859 .128 5.859 L 0 5.859 L 0 6.135 C .56 6.135 1.515 6.098 2.287 6.098 C 3.058 6.098 4.013 6.135 4.638 6.135 C 4.62 5.74 4.629 5.134 4.656 4.73 L 4.381 4.656 C 4.335 5.253 4.225 5.731 3.26 5.731 L 1.984 5.731 L 1.984 3.325 L 3.077 3.325 C 3.628 3.325 3.747 3.637 3.802 4.133 L 4.078 4.133 C 4.059 3.775 4.05 3.416 4.05 3.058 C 4.05 2.709 4.059 2.36 4.078 2.011 L 3.802 1.956 C 3.747 2.507 3.719 2.865 3.086 2.865 L 1.984 2.865 L 1.984 .725 C 1.984 .128 2.516 .128 3.104 .128 C 4.206 .128 4.693 .202 4.969 1.249 L 5.226 1.185 C 5.106 .698 4.996 .211 4.914 -.276 C 4.326 -.276 3.269 -.239 2.443 -.239 C 1.616 -.239 .524 -.276 0 -.276 Z " fill="#ffffff"/><path transform="matrix(1,0,0,-1,592.7091,89.196109)" d="M 0 0 C 0 -.643 .119 -.781 .827 -.781 C 1.607 -.781 2.186 -.147 2.186 .67 C 2.186 1.69 1.506 2.158 .588 2.158 L 0 2.158 Z M 0 2.489 L .45 2.489 C 1.231 2.489 1.809 2.819 1.809 3.683 C 1.809 4.739 1.176 4.969 .551 4.969 L 0 4.969 Z M -1.984 -.836 L -1.855 -.836 C -1.525 -.836 -1.176 -.79 -1.176 -.312 L -1.176 4.5 C -1.176 4.978 -1.525 5.024 -1.855 5.024 L -1.984 5.024 L -1.984 5.299 C -1.58 5.299 -1.065 5.262 -.551 5.262 C -.027 5.262 .496 5.299 .919 5.299 C 2.462 5.299 3.04 4.656 3.04 3.857 C 3.04 2.92 2.177 2.516 1.368 2.369 L 1.368 2.351 C 2.37 2.379 3.417 1.818 3.417 .707 C 3.417 -.285 2.443 -1.111 1.249 -1.111 C .79 -1.111 .211 -1.075 -.358 -1.075 C -.928 -1.075 -1.589 -1.111 -1.984 -1.111 Z " fill="#ffffff"/><path transform="matrix(1,0,0,-1,600.4691,84.92551)" d="M 0 0 L -.019 0 L -.873 -2.599 L .845 -2.599 Z M -1.341 -4.069 C -1.433 -4.381 -1.543 -4.62 -1.543 -4.785 C -1.543 -5.06 -1.157 -5.106 -.854 -5.106 L -.753 -5.106 L -.753 -5.382 C -1.121 -5.364 -1.497 -5.345 -1.865 -5.345 C -2.195 -5.345 -2.526 -5.364 -2.857 -5.382 L -2.857 -5.106 L -2.801 -5.106 C -2.443 -5.106 -2.14 -4.895 -2.003 -4.51 L -.533 -.294 C -.414 .046 -.248 .505 -.193 .845 C .101 .946 .468 1.13 .643 1.24 C .67 1.249 .688 1.258 .716 1.258 C .744 1.258 .762 1.258 .78 1.231 C .808 1.157 .836 1.075 .863 1.001 L 2.553 -3.802 C 2.663 -4.124 2.773 -4.464 2.893 -4.739 C 3.003 -4.996 3.196 -5.106 3.499 -5.106 L 3.554 -5.106 L 3.554 -5.382 C 3.141 -5.364 2.728 -5.345 2.287 -5.345 C 1.837 -5.345 1.378 -5.364 .909 -5.382 L .909 -5.106 L 1.01 -5.106 C 1.221 -5.106 1.58 -5.07 1.58 -4.84 C 1.58 -4.721 1.497 -4.473 1.396 -4.179 L 1.038 -3.114 L -1.047 -3.114 Z " fill="#ffffff"/><path transform="matrix(1,0,0,-1,611.5076,88.4982)" d="M 0 0 L .018 .018 L .018 3.463 C .018 4.216 -.505 4.326 -.781 4.326 L -.983 4.326 L -.983 4.601 C -.551 4.601 -.129 4.565 .303 4.565 C .679 4.565 1.056 4.601 1.432 4.601 L 1.432 4.326 L 1.295 4.326 C .909 4.326 .477 4.252 .477 3.159 L .477 -1.02 C .477 -1.341 .487 -1.662 .532 -1.947 L .183 -1.947 L -4.546 3.325 L -4.546 -.459 C -4.546 -1.258 -4.39 -1.534 -3.683 -1.534 L -3.527 -1.534 L -3.527 -1.809 C -3.922 -1.809 -4.317 -1.773 -4.712 -1.773 C -5.125 -1.773 -5.548 -1.809 -5.961 -1.809 L -5.961 -1.534 L -5.832 -1.534 C -5.199 -1.534 -5.006 -1.102 -5.006 -.368 L -5.006 3.499 C -5.006 4.014 -5.428 4.326 -5.841 4.326 L -5.961 4.326 L -5.961 4.601 C -5.612 4.601 -5.254 4.565 -4.905 4.565 C -4.629 4.565 -4.362 4.601 -4.087 4.601 Z " fill="#ffffff"/><path transform="matrix(1,0,0,-1,618.2567,83.896808)" d="M 0 0 C .395 0 .781 -.037 1.176 -.037 C 1.589 -.037 1.993 0 2.407 0 L 2.407 -.276 L 2.287 -.276 C 1.681 -.276 1.185 -.689 .808 -1.093 L -.643 -2.664 L 1.717 -5.63 C 1.911 -5.906 2.205 -6.135 2.554 -6.135 L 2.554 -6.411 C 2.25 -6.411 1.929 -6.392 1.617 -6.392 C 1.323 -6.392 1.038 -6.411 .744 -6.411 C .661 -6.236 .395 -5.869 .267 -5.722 L -1.717 -3.242 L .211 -1.093 C .331 -.974 .615 -.661 .615 -.469 C .615 -.285 .221 -.276 .101 -.276 L 0 -.276 Z M -3.729 -6.135 L -3.6 -6.135 C -3.269 -6.135 -2.92 -6.089 -2.92 -5.612 L -2.92 -.799 C -2.92 -.322 -3.269 -.276 -3.6 -.276 L -3.729 -.276 L -3.729 0 C -3.361 0 -2.81 -.037 -2.342 -.037 C -1.846 -.037 -1.258 0 -.882 0 L -.882 -.276 L -.992 -.276 C -1.267 -.276 -1.745 -.285 -1.745 -.799 L -1.745 -5.612 C -1.745 -6.126 -1.267 -6.135 -.992 -6.135 L -.882 -6.135 L -.882 -6.411 C -1.258 -6.411 -1.846 -6.374 -2.342 -6.374 C -2.81 -6.374 -3.361 -6.411 -3.729 -6.411 Z " fill="#ffffff"/><path transform="matrix(1,0,0,-1,548.6649,99.6444)" d="M 0 0 C 1.375 0 1.616 1.212 1.616 2.248 C 1.616 3.283 1.056 4.538 -.121 4.538 C -1.361 4.538 -1.73 3.432 -1.73 2.481 C -1.73 1.212 -1.149 0 0 0 M -.106 4.85 C 1.404 4.85 2.609 3.914 2.609 2.403 C 2.609 .773 1.439 -.312 -.071 -.312 C -1.574 -.312 -2.722 .709 -2.722 2.234 C -2.722 3.708 -1.581 4.85 -.106 4.85 " fill="#ffffff"/><path transform="matrix(1,0,0,-1,554.2578,97.0707)" d="M 0 0 L .992 0 C 1.34 0 1.446 .22 1.446 .574 L 1.659 .574 C 1.645 .319 1.631 .071 1.631 -.184 C 1.631 -.475 1.638 -.759 1.659 -1.049 L 1.446 -1.049 C 1.446 -.652 1.333 -.354 .879 -.354 L 0 -.354 L 0 -2.162 C 0 -2.56 .326 -2.566 .681 -2.566 L .773 -2.566 L .773 -2.779 C .44 -2.779 -.043 -2.751 -.447 -2.751 C -.815 -2.751 -1.248 -2.779 -1.531 -2.779 L -1.531 -2.566 L -1.432 -2.566 C -1.177 -2.566 -.907 -2.531 -.907 -2.162 L -.907 1.553 C -.907 1.921 -1.177 1.957 -1.432 1.957 L -1.531 1.957 L -1.531 2.17 C -1.099 2.17 -.362 2.141 .234 2.141 C .829 2.141 1.567 2.17 2.049 2.17 C 2.035 1.865 2.042 1.397 2.063 1.085 L 1.85 1.028 C 1.808 1.517 1.695 1.857 1.134 1.857 L 0 1.857 Z " fill="#ffffff"/><path transform="matrix(1,0,0,-1,562.9772,95.695308)" d="M 0 0 L -.014 0 L -.674 -2.006 L .652 -2.006 Z M -1.035 -3.141 C -1.106 -3.382 -1.191 -3.566 -1.191 -3.694 C -1.191 -3.906 -.893 -3.942 -.659 -3.942 L -.581 -3.942 L -.581 -4.155 C -.865 -4.14 -1.156 -4.126 -1.439 -4.126 C -1.695 -4.126 -1.95 -4.14 -2.205 -4.155 L -2.205 -3.942 L -2.162 -3.942 C -1.886 -3.942 -1.652 -3.779 -1.545 -3.481 L -.411 -.227 C -.319 .036 -.191 .39 -.149 .652 C .078 .73 .362 .872 .496 .957 C .518 .964 .532 .971 .553 .971 C .574 .971 .588 .971 .603 .95 C .624 .893 .645 .829 .666 .773 L 1.971 -2.935 C 2.056 -3.183 2.141 -3.446 2.233 -3.658 C 2.318 -3.857 2.467 -3.942 2.701 -3.942 L 2.744 -3.942 L 2.744 -4.155 C 2.425 -4.14 2.106 -4.126 1.765 -4.126 C 1.418 -4.126 1.064 -4.14 .702 -4.155 L .702 -3.942 L .78 -3.942 C .943 -3.942 1.219 -3.914 1.219 -3.736 C 1.219 -3.644 1.156 -3.453 1.078 -3.226 L .801 -2.403 L -.808 -2.403 Z " fill="#ffffff"/><path transform="matrix(1,0,0,-1,567.1524,95.6314)" d="M 0 0 C 0 .51 -.262 .518 -.546 .518 L -.631 .518 L -.631 .73 C -.326 .73 .05 .702 .496 .702 C .922 .702 1.276 .73 1.56 .73 L 1.56 .518 L 1.475 .518 C 1.191 .518 .908 .51 .908 0 L .908 -2.446 C .908 -3.347 1.241 -3.97 2.255 -3.97 C 3.19 -3.97 3.602 -3.375 3.602 -2.418 L 3.602 0 C 3.602 .51 3.332 .518 3.091 .518 L 2.949 .518 L 2.949 .73 C 3.233 .73 3.524 .702 3.807 .702 C 4.084 .702 4.353 .73 4.63 .73 L 4.63 .518 L 4.481 .518 C 4.289 .518 4.027 .51 4.027 0 L 4.027 -2.262 C 4.027 -3.864 3.176 -4.325 2.12 -4.325 C .758 -4.325 0 -3.829 0 -2.56 Z " fill="#ffffff"/><path transform="matrix(1,0,0,-1,575.5956,95.9505)" d="M 0 0 C -.05 .461 -.347 .901 -.837 .901 C -1.397 .901 -1.709 .567 -1.709 .007 C -1.709 -1.17 .418 -.815 .418 -2.517 C .418 -3.495 -.39 -4.006 -1.297 -4.006 C -1.695 -4.006 -2.077 -3.864 -2.425 -3.687 C -2.46 -3.325 -2.51 -2.97 -2.545 -2.609 L -2.347 -2.566 C -2.262 -3.169 -1.921 -3.694 -1.248 -3.694 C -.766 -3.694 -.376 -3.389 -.376 -2.885 C -.376 -1.631 -2.46 -2.02 -2.46 -.312 C -2.46 .61 -1.808 1.156 -.893 1.156 C -.695 1.156 -.092 1.078 .128 1.049 C .128 .716 .156 .376 .199 .036 Z " fill="#ffffff"/><path transform="matrix(1,0,0,-1,578.3316,95.2557)" d="M 0 0 C -.532 0 -.553 -.127 -.66 -.645 L -.872 -.645 C -.844 -.447 -.808 -.248 -.787 -.042 C -.759 .156 -.745 .355 -.745 .56 L -.575 .56 C -.518 .347 -.34 .355 -.149 .355 L 3.509 .355 C 3.701 .355 3.878 .362 3.892 .574 L 4.062 .546 C 4.034 .355 4.006 .163 3.984 -.028 C 3.97 -.22 3.97 -.411 3.97 -.603 L 3.758 -.681 C 3.743 -.418 3.708 0 3.233 0 L 2.07 0 L 2.07 -3.772 C 2.07 -4.318 2.318 -4.381 2.659 -4.381 L 2.793 -4.381 L 2.793 -4.594 C 2.517 -4.594 2.02 -4.566 1.638 -4.566 C 1.212 -4.566 .716 -4.594 .439 -4.594 L .439 -4.381 L .574 -4.381 C .964 -4.381 1.163 -4.346 1.163 -3.786 L 1.163 0 Z " fill="#ffffff"/><path transform="matrix(1,0,0,-1,585.2505,97.2976)" d="M 0 0 L .347 0 C 1.056 0 1.439 .269 1.439 1.106 C 1.439 1.737 1.035 2.141 .404 2.141 C .191 2.141 .099 2.12 0 2.113 Z M -.908 1.645 C -.908 2.162 -1.191 2.184 -1.411 2.184 L -1.539 2.184 L -1.539 2.396 C -1.312 2.396 -.872 2.368 -.44 2.368 C -.015 2.368 .326 2.396 .702 2.396 C 1.595 2.396 2.389 2.155 2.389 1.149 C 2.389 .51 1.964 .12 1.403 -.099 L 2.616 -1.914 C 2.814 -2.212 2.956 -2.297 3.304 -2.34 L 3.304 -2.552 C 3.07 -2.552 2.843 -2.524 2.609 -2.524 C 2.389 -2.524 2.162 -2.552 1.942 -2.552 C 1.396 -1.836 .929 -1.071 .468 -.255 L 0 -.255 L 0 -1.773 C 0 -2.318 .255 -2.34 .581 -2.34 L .709 -2.34 L .709 -2.552 C .305 -2.552 -.106 -2.524 -.51 -2.524 C -.851 -2.524 -1.184 -2.552 -1.539 -2.552 L -1.539 -2.34 L -1.411 -2.34 C -1.149 -2.34 -.908 -2.219 -.908 -1.957 Z " fill="#ffffff"/><path transform="matrix(1,0,0,-1,591.8076,95.695308)" d="M 0 0 L -.014 0 L -.674 -2.006 L .652 -2.006 Z M -1.035 -3.141 C -1.106 -3.382 -1.191 -3.566 -1.191 -3.694 C -1.191 -3.906 -.894 -3.942 -.66 -3.942 L -.581 -3.942 L -.581 -4.155 C -.865 -4.14 -1.156 -4.126 -1.439 -4.126 C -1.695 -4.126 -1.95 -4.14 -2.205 -4.155 L -2.205 -3.942 L -2.162 -3.942 C -1.886 -3.942 -1.652 -3.779 -1.546 -3.481 L -.411 -.227 C -.319 .036 -.191 .39 -.149 .652 C .078 .73 .361 .872 .496 .957 C .517 .964 .532 .971 .553 .971 C .574 .971 .588 .971 .602 .95 C .624 .893 .645 .829 .666 .773 L 1.971 -2.935 C 2.056 -3.183 2.141 -3.446 2.233 -3.658 C 2.318 -3.857 2.467 -3.942 2.701 -3.942 L 2.744 -3.942 L 2.744 -4.155 C 2.425 -4.14 2.106 -4.126 1.765 -4.126 C 1.418 -4.126 1.064 -4.14 .702 -4.155 L .702 -3.942 L .78 -3.942 C .943 -3.942 1.219 -3.914 1.219 -3.736 C 1.219 -3.644 1.155 -3.453 1.077 -3.226 L .801 -2.403 L -.808 -2.403 Z " fill="#ffffff"/><path transform="matrix(1,0,0,-1,597.1877,99.155109)" d="M 0 0 C 0 -.284 .199 -.369 .425 -.397 C .716 -.418 1.035 -.418 1.361 -.383 C 1.659 -.347 1.914 -.177 2.042 0 C 2.156 .156 2.219 .355 2.262 .51 L 2.467 .51 C 2.389 .106 2.29 -.291 2.205 -.695 C 1.581 -.695 .957 -.666 .333 -.666 C -.291 -.666 -.914 -.695 -1.539 -.695 L -1.539 -.482 L -1.439 -.482 C -1.184 -.482 -.907 -.446 -.907 -.007 L -.907 3.637 C -.907 4.006 -1.184 4.041 -1.439 4.041 L -1.539 4.041 L -1.539 4.254 C -1.163 4.254 -.794 4.226 -.419 4.226 C -.057 4.226 .298 4.254 .66 4.254 L .66 4.041 L .482 4.041 C .213 4.041 0 4.034 0 3.658 Z " fill="#ffffff"/><path transform="matrix(1,0,0,-1,601.1928,99.6372)" d="M 0 0 L .099 0 C .354 0 .624 .036 .624 .404 L .624 4.119 C .624 4.488 .354 4.523 .099 4.523 L 0 4.523 L 0 4.736 C .276 4.736 .702 4.708 1.049 4.708 C 1.403 4.708 1.829 4.736 2.162 4.736 L 2.162 4.523 L 2.063 4.523 C 1.808 4.523 1.538 4.488 1.538 4.119 L 1.538 .404 C 1.538 .036 1.808 0 2.063 0 L 2.162 0 L 2.162 -.213 C 1.822 -.213 1.397 -.184 1.042 -.184 C .695 -.184 .276 -.213 0 -.213 Z " fill="#ffffff"/><path transform="matrix(1,0,0,-1,607.0198,95.695308)" d="M 0 0 L -.014 0 L -.673 -2.006 L .652 -2.006 Z M -1.035 -3.141 C -1.106 -3.382 -1.191 -3.566 -1.191 -3.694 C -1.191 -3.906 -.893 -3.942 -.66 -3.942 L -.581 -3.942 L -.581 -4.155 C -.865 -4.14 -1.155 -4.126 -1.439 -4.126 C -1.694 -4.126 -1.95 -4.14 -2.205 -4.155 L -2.205 -3.942 L -2.162 -3.942 C -1.886 -3.942 -1.652 -3.779 -1.546 -3.481 L -.411 -.227 C -.319 .036 -.191 .39 -.149 .652 C .078 .73 .362 .872 .497 .957 C .518 .964 .532 .971 .553 .971 C .574 .971 .588 .971 .603 .95 C .624 .893 .645 .829 .667 .773 L 1.971 -2.935 C 2.056 -3.183 2.141 -3.446 2.234 -3.658 C 2.318 -3.857 2.467 -3.942 2.701 -3.942 L 2.744 -3.942 L 2.744 -4.155 C 2.425 -4.14 2.106 -4.126 1.765 -4.126 C 1.418 -4.126 1.064 -4.14 .702 -4.155 L .702 -3.942 L .78 -3.942 C .943 -3.942 1.22 -3.914 1.22 -3.736 C 1.22 -3.644 1.155 -3.453 1.078 -3.226 L .801 -2.403 L -.808 -2.403 Z " fill="#ffffff"/><path transform="matrix(1,0,0,-1,568.8182,49.894906)" d="M 0 0 L 17.941 0 L 18.002 -.123 C 1.385 -7.724 12.925 -22.618 22.742 -5.847 L 22.803 -5.909 L 17.941 -24.865 L 17.818 -24.865 C 16.741 -10.494 1.262 -10.863 .154 -24.68 L 0 -24.68 L -5.201 -7.355 L -5.016 -7.324 C 7.17 -21.572 14.771 -8.34 -.031 -.092 Z " fill="#ffffff"/><path transform="matrix(1,0,0,-1,332.3526,63.728006)" d="M 0 0 C -.496 .797 -1.523 1.057 -2.338 .591 L -3.468 -.096 L -3.465 -.086 C -3.123 .775 -3.51 1.747 -4.354 2.135 C -5.206 2.528 -6.206 2.179 -6.631 1.342 L -8.787 -3.218 L -12.555 -1.899 L -8.137 -.027 L -8.724 1.598 L -8.729 1.612 C -9.158 2.686 -10.379 3.212 -11.453 2.786 L -14.083 1.813 C -15.291 2.888 -17.176 3.622 -18.875 2.944 C -19.777 2.584 -20.543 1.956 -21.055 1.162 L -22.086 1.162 L -22.086 2.869 L -25.86 2.869 L -25.86 -9.606 L -22.086 -9.606 L -22.086 -7.468 L -19.402 -7.468 L -8.222 -8.674 L -3.943 -5.175 L -.481 -2.344 C .279 -1.813 .491 -.788 0 0 " fill="#ffffff"/><path transform="matrix(1,0,0,-1,331.6469,43.7927)" d="M 0 0 L 0 -1.079 L -2.31 -1.075 L -2.31 -1.074 L -2.464 -1.074 L -3.419 -1.073 L -3.419 -1.076 L -11.186 -1.087 L -14.639 -4.112 C -14.662 -4.112 -14.685 -4.111 -14.708 -4.111 C -17.904 -4.111 -20.503 -6.711 -20.503 -9.906 C -20.503 -10.102 -20.491 -10.298 -20.471 -10.492 C -20.472 -10.492 -20.474 -10.494 -20.474 -10.494 C -20.473 -10.503 -20.471 -10.512 -20.47 -10.521 C -20.466 -10.559 -20.459 -10.595 -20.454 -10.632 C -20.435 -10.804 -20.407 -10.975 -20.369 -11.148 C -20.367 -11.154 -20.367 -11.162 -20.365 -11.168 L -20.364 -11.168 C -20.284 -11.516 -20.179 -11.846 -20.071 -12.111 L -20.073 -12.111 C -20.067 -12.125 -20.058 -12.138 -20.053 -12.152 C -20.007 -12.26 -19.962 -12.365 -19.92 -12.443 C -19.92 -12.443 -19.909 -12.444 -19.905 -12.444 C -18.961 -14.354 -16.941 -15.701 -14.708 -15.701 C -11.696 -15.701 -9.216 -13.421 -8.939 -10.457 L -7.665 -9.953 C -6.819 -10.689 -5.746 -11.078 -4.656 -11.078 C -4.086 -11.078 -3.51 -10.971 -2.959 -10.752 L -.562 -9.702 L 0 -9.698 L 0 -12.475 L 3.774 -12.475 L 3.774 0 Z " fill="#ffffff"/><path transform="matrix(1,0,0,-1,327.2706,62.4245)" d="M 0 0 C .107 0 .213 -.023 .312 -.069 C .678 -.237 .844 -.66 .687 -1.039 L .409 -2.015 L -2.163 -3.578 L -.663 -.406 C -.534 -.155 -.28 0 0 0 M 4.002 -2.855 L .51 -5.711 L -3.406 -8.951 L -14.272 -7.78 L -16.905 -7.78 L -16.905 -1.133 L -15.404 -1.133 L -15.248 -.854 C -14.851 -.15 -14.204 .409 -13.427 .72 C -13.105 .848 -12.76 .913 -12.398 .913 C -11.418 .913 -10.303 .413 -9.489 -.393 L -9.243 -.637 L -6.011 .56 C -5.879 .612 -5.741 .639 -5.601 .639 C -5.146 .639 -4.742 .367 -4.573 -.05 L -4.308 -.783 L -10.368 -3.322 L -9.962 -4.333 L -8.732 -3.813 L -3.435 -5.628 L 3.238 -1.57 C 3.351 -1.508 3.478 -1.474 3.605 -1.474 C 3.864 -1.474 4.102 -1.606 4.239 -1.827 C 4.451 -2.168 4.357 -2.613 4.002 -2.855 M -19.788 .574 L -17.996 .574 L -17.996 -9.917999 L -19.788 -9.917999 Z M 3.606 -.382 C 3.288 -.382 2.973 -.466 2.691 -.627 L 1.789 -1.176 C 1.991 -.335 1.576 .551 .77 .923 C .524 1.036 .265 1.093 -.002 1.093 C -.696 1.093 -1.324 .706 -1.641 .081 L -3.758 -4.397 L -7.196 -3.193 L -2.931 -1.385 L -3.556 .346 C -3.892 1.187 -4.695 1.73 -5.603 1.73 C -5.88 1.73 -6.151 1.679 -6.408 1.577 L -8.98 .624 C -9.972 1.488 -11.249 2.003 -12.408 2.003 C -12.905 2.003 -13.384 1.912 -13.831 1.733 C -14.745 1.368 -15.536 .722 -15.975 -.041 L -16.905 -.041 L -16.905 1.665 L -20.879 1.665 L -20.879 -11.009 L -16.905 -11.009 L -16.905 -8.871 L -14.331 -8.871 L -3.078 -10.055 L 4.657 -3.729 C 5.459 -3.17 5.683 -2.081 5.166 -1.251 C 4.827 -.707 4.244 -.382 3.606 -.382 "/><path transform="matrix(1,0,0,-1,0,163.856)" d="M 332.637 119.072 L 334.429 119.072 L 334.429 108.58 L 332.637 108.58 Z M 312.134 110.157 C 312.134 112.807 314.289 114.962 316.938 114.962 C 318.515 114.962 319.979 114.194 320.879 112.904 L 318.521 111.911 L 319.427 109.959 C 319.711 109.348 320.329 108.954 321.003 108.954 C 321.213 108.954 321.42 108.992 321.618 109.067 C 321.121 106.905 319.182 105.353 316.938 105.353 C 315.012 105.353 313.278 106.501 312.521 108.276 C 312.403 108.552 312.307 108.855 312.241 109.154 C 312.17 109.488 312.134 109.825 312.134 110.157 M 324.209 111.266 L 321.237 110.091 C 321.162 110.061 321.082 110.046 321.002 110.046 C 320.752 110.046 320.523 110.192 320.418 110.418 L 319.988 111.345 L 325.063 113.481 L 324.64 114.487 L 321.902 113.335 C 321.104 114.583 319.843 115.495 318.411 115.865 L 320.796 117.986 L 329.183 117.998 L 331.546 117.993 L 331.546 111.356 L 330.854 111.344 L 328.313 110.23 C 327.889 110.062 327.443 109.976 326.988 109.976 C 326.036 109.976 325.138 110.346 324.461 111.016 Z M 331.546 120.163 L 331.546 119.085 L 328.227 119.091 L 320.394 119.052 L 316.938 116.052 C 313.688 116.052 311.043 113.407 311.043 110.157 C 311.043 109.959 311.055 109.759 311.102 109.64 L 311.071 109.579 L 311.092 109.419 C 311.112 109.245 311.14 109.069 311.185 108.873 C 311.258 108.554 311.358 108.228 311.466 107.954 L 311.483 107.916 L 311.503 107.866 C 311.55 107.758 311.595 107.651 311.638 107.573 L 311.675 107.526 C 312.679 105.542 314.738 104.263 316.938 104.263 C 319.979 104.263 322.488 106.525 322.801 109.536 L 323.961 109.995 C 324.806 109.279 325.879 108.886 326.989 108.886 C 327.586 108.886 328.169 108.997 328.727 109.22 L 331.085 110.263 L 331.546 110.265 L 331.546 107.489 L 335.52 107.489 L 335.52 120.163 Z "/><path transform="matrix(1,0,0,-1,317.5623,52.497804)" d="M 0 0 C 0 -.106 .04 -.207 .111 -.282 C .181 -.357 .277 -.399 .378 -.399 C .478 -.399 .574 -.357 .644 -.282 C .715 -.207 .755 -.106 .755 0 C .755 .716 .233 1.13 -.376 1.251 L -.376 1.587 C -.374 1.695 -.415 1.798 -.487 1.874 C -.559 1.95 -.658 1.992 -.759 1.99 C -.967 1.986 -1.132 1.806 -1.13 1.587 L -1.13 1.252 C -1.739 1.131 -2.26 .717 -2.26 0 C -2.26 -.498 -2.047 -.9 -1.762 -1.134 C -1.477 -1.369 -1.154 -1.473 -.871 -1.572 C -.589 -1.672 -.344 -1.767 -.206 -1.881 C -.067 -1.995 0 -2.091 0 -2.389 C 0 -3.053 -1.506 -3.053 -1.506 -2.389 C -1.503 -2.282 -1.542 -2.179 -1.613 -2.102 C -1.684 -2.026 -1.781 -1.982 -1.883 -1.982 C -1.984 -1.982 -2.082 -2.026 -2.152 -2.102 C -2.223 -2.179 -2.262 -2.282 -2.26 -2.389 C -2.26 -3.106 -1.738 -3.521 -1.13 -3.642 L -1.13 -3.976 C -1.132 -4.083 -1.094 -4.187 -1.023 -4.263 C -.952 -4.34 -.854 -4.383 -.753 -4.383 C -.651 -4.383 -.554 -4.34 -.483 -4.263 C -.412 -4.187 -.373 -4.083 -.376 -3.976 L -.376 -3.642 C .233 -3.521 .755 -3.106 .755 -2.389 C .755 -1.892 .542 -1.489 .256 -1.255 C -.029 -1.021 -.351 -.916 -.634 -.816 C -.917 -.717 -1.161 -.623 -1.3 -.509 C -1.439 -.395 -1.506 -.299 -1.506 0 C -1.506 .663 0 .663 0 0 "/><path transform="matrix(1,0,0,-1,302.0825,84.82011)" d="M 0 0 C -.048 1.044 -.108 2.303 -.096 3.395 L -.132 3.395 C -.396 2.411 -.731 1.319 -1.092 .3 L -2.267 -3.202 L -3.406 -3.202 L -4.485 .252 C -4.798 1.283 -5.085 2.387 -5.301 3.395 L -5.325 3.395 C -5.361 2.339 -5.409 1.056 -5.469 -.048 L -5.648 -3.298 L -7.028 -3.298 L -6.488 4.785 L -4.546 4.785 L -3.49 1.535 C -3.202 .588 -2.95 -.372 -2.746 -1.271 L -2.711 -1.271 C -2.495 -.396 -2.219 .6 -1.907 1.547 L -.792 4.785 L 1.127 4.785 L 1.595 -3.298 L .156 -3.298 Z " fill="#ffffff"/><path transform="matrix(1,0,0,-1,310.7231,84.7117)" d="M 0 0 L -.636 1.99 C -.791 2.482 -.923 3.034 -1.043 3.502 L -1.067 3.502 C -1.187 3.034 -1.307 2.471 -1.451 1.99 L -2.074 0 Z M -2.314 -1.116 L -3.01 -3.406 L -4.533 -3.406 L -1.942 4.677 L -.06 4.677 L 2.566 -3.406 L .983 -3.406 L .252 -1.116 Z " fill="#ffffff"/><path transform="matrix(1,0,0,-1,317.5649,83.716609)" d="M 0 0 L .876 0 C 1.871 0 2.495 .527 2.495 1.331 C 2.495 2.219 1.871 2.627 .912 2.627 C .444 2.627 .145 2.591 0 2.555 Z M -1.463 3.574 C -.911 3.67 -.084 3.742 .768 3.742 C 1.932 3.742 2.723 3.55 3.263 3.095 C 3.706 2.723 3.958 2.159 3.958 1.476 C 3.958 .432 3.251 -.275 2.495 -.552 L 2.495 -.588 C 3.07 -.804 3.418 -1.367 3.622 -2.146 C 3.874 -3.154 4.09 -4.09 4.258 -4.401 L 2.734 -4.401 C 2.615 -4.162 2.423 -3.502 2.195 -2.495 C 1.967 -1.439 1.583 -1.104 .744 -1.079 L 0 -1.079 L 0 -4.401 L -1.463 -4.401 Z " fill="#ffffff"/><path transform="matrix(1,0,0,-1,324.6098,80.034908)" d="M 0 0 L 1.463 0 L 1.463 -3.718 L 1.499 -3.718 C 1.691 -3.406 1.895 -3.118 2.087 -2.842 L 4.197 0 L 6.021 0 L 3.238 -3.441 L 6.2 -8.083 L 4.474 -8.083 L 2.183 -4.377 L 1.463 -5.241 L 1.463 -8.083 L 0 -8.083 Z " fill="#ffffff"/><path transform="matrix(1,0,0,-1,337.7944,84.532009)" d="M 0 0 L -3.046 0 L -3.046 -2.375 L .359 -2.375 L .359 -3.586 L -4.521 -3.586 L -4.521 4.497 L .18 4.497 L .18 3.286 L -3.046 3.286 L -3.046 1.199 L 0 1.199 Z " fill="#ffffff"/><path transform="matrix(1,0,0,-1,342.8003,81.2703)" d="M 0 0 L -2.303 0 L -2.303 1.235 L 3.802 1.235 L 3.802 0 L 1.476 0 L 1.476 -6.848 L 0 -6.848 Z " fill="#ffffff"/><path transform="matrix(1,0,0,-1,306.1323,99.82011)" d="M 0 0 C -.048 1.044 -.108 2.303 -.096 3.395 L -.132 3.395 C -.396 2.411 -.731 1.319 -1.092 .3 L -2.267 -3.202 L -3.406 -3.202 L -4.485 .252 C -4.797 1.283 -5.085 2.387 -5.301 3.395 L -5.325 3.395 C -5.361 2.339 -5.409 1.056 -5.469 -.048 L -5.648 -3.298 L -7.028 -3.298 L -6.488 4.785 L -4.546 4.785 L -3.49 1.535 C -3.202 .588 -2.95 -.372 -2.746 -1.271 L -2.711 -1.271 C -2.494 -.396 -2.219 .6 -1.907 1.547 L -.792 4.785 L 1.127 4.785 L 1.595 -3.298 L .156 -3.298 Z " fill="#ffffff"/><path transform="matrix(1,0,0,-1,314.7729,99.7117)" d="M 0 0 L -.636 1.99 C -.791 2.482 -.923 3.034 -1.043 3.502 L -1.067 3.502 C -1.187 3.034 -1.307 2.471 -1.451 1.99 L -2.074 0 Z M -2.314 -1.116 L -3.01 -3.406 L -4.533 -3.406 L -1.942 4.677 L -.06 4.677 L 2.566 -3.406 L .983 -3.406 L .252 -1.116 Z " fill="#ffffff"/><path transform="matrix(1,0,0,-1,320.1518,95.034908)" d="M 0 0 L 1.463 0 L 1.463 -3.718 L 1.499 -3.718 C 1.691 -3.406 1.895 -3.118 2.087 -2.842 L 4.197 0 L 6.021 0 L 3.238 -3.441 L 6.2 -8.083 L 4.474 -8.083 L 2.183 -4.377 L 1.463 -5.241 L 1.463 -8.083 L 0 -8.083 Z " fill="#ffffff"/><path transform="matrix(1,0,0,-1,333.3364,99.532009)" d="M 0 0 L -3.046 0 L -3.046 -2.375 L .359 -2.375 L .359 -3.586 L -4.521 -3.586 L -4.521 4.497 L .18 4.497 L .18 3.286 L -3.046 3.286 L -3.046 1.199 L 0 1.199 Z " fill="#ffffff"/><path transform="matrix(1,0,0,-1,338.1372,98.716609)" d="M 0 0 L .876 0 C 1.871 0 2.495 .527 2.495 1.331 C 2.495 2.219 1.871 2.627 .912 2.627 C .444 2.627 .145 2.591 0 2.555 Z M -1.463 3.574 C -.911 3.67 -.084 3.742 .768 3.742 C 1.932 3.742 2.723 3.55 3.263 3.095 C 3.706 2.723 3.958 2.159 3.958 1.476 C 3.958 .432 3.251 -.275 2.495 -.552 L 2.495 -.588 C 3.07 -.804 3.418 -1.367 3.622 -2.146 C 3.874 -3.154 4.09 -4.09 4.258 -4.401 L 2.734 -4.401 C 2.615 -4.162 2.423 -3.502 2.195 -2.495 C 1.967 -1.439 1.583 -1.104 .744 -1.079 L 0 -1.079 L 0 -4.401 L -1.463 -4.401 Z " fill="#ffffff"/></g></g></svg>